<?xml version="1.0" encoding="UTF-8" standalone="no"?>
<!-- Created with Inkscape (http://www.inkscape.org/) -->

<svg
   xmlns:dc="http://purl.org/dc/elements/1.1/"
   xmlns:cc="http://creativecommons.org/ns#"
   xmlns:rdf="http://www.w3.org/1999/02/22-rdf-syntax-ns#"
   xmlns:svg="http://www.w3.org/2000/svg"
   xmlns="http://www.w3.org/2000/svg"
   xmlns:xlink="http://www.w3.org/1999/xlink"
   xmlns:sodipodi="http://sodipodi.sourceforge.net/DTD/sodipodi-0.dtd"
   xmlns:inkscape="http://www.inkscape.org/namespaces/inkscape"
   width="517.70703"
   height="435.08719"
   viewBox="0 0 517.70704 435.08718"
   id="svg3448"
   version="1.1"
   inkscape:version="0.91 r13725"
   sodipodi:docname="logo_inkscape3.svg">
  <defs
     id="defs3450">
    <linearGradient
       inkscape:collect="always"
       id="linearGradient4559">
      <stop
         style="stop-color:#004455;stop-opacity:1;"
         offset="0"
         id="stop4561" />
      <stop
         style="stop-color:#0088aa;stop-opacity:1"
         offset="1"
         id="stop4563" />
    </linearGradient>
    <linearGradient
       inkscape:collect="always"
       xlink:href="#linearGradient4559"
       id="linearGradient4191"
       x1="130.37111"
       y1="173.19218"
       x2="537.66528"
       y2="173.19218"
       gradientUnits="userSpaceOnUse"
       gradientTransform="matrix(0.99996193,-0.00872654,0.00872654,0.99996193,-1.4871269,-4.2296774)" />
  </defs>
  <sodipodi:namedview
     id="base"
     pagecolor="#ffffff"
     bordercolor="#666666"
     borderopacity="1.0"
     inkscape:pageopacity="0.0"
     inkscape:pageshadow="2"
     inkscape:zoom="1.4"
     inkscape:cx="281.48548"
     inkscape:cy="264.61085"
     inkscape:document-units="px"
     inkscape:current-layer="layer1"
     showgrid="false"
     inkscape:window-width="1276"
     inkscape:window-height="756"
     inkscape:window-x="0"
     inkscape:window-y="0"
     inkscape:window-maximized="1"
     units="px"
     fit-margin-top="0"
     fit-margin-left="0"
     fit-margin-right="0"
     fit-margin-bottom="0" />
  <metadata
     id="metadata3453">
    <rdf:RDF>
      <cc:Work
         rdf:about="">
        <dc:format>image/svg+xml</dc:format>
        <dc:type
           rdf:resource="http://purl.org/dc/dcmitype/StillImage" />
        <dc:title />
      </cc:Work>
    </rdf:RDF>
  </metadata>
  <g
     inkscape:groupmode="layer"
     id="layer5"
     inkscape:label="Layer 5"
     transform="translate(-31.853238,55.726149)"
     style="display:inline">
    <path
       style="fill:#fff6e5;fill-opacity:1;stroke:none"
       d="m 83.908048,374.64585 c -19.335913,-3.01957 -34.37891,-20.53484 -38.053443,-44.30741 -0.661187,-4.27758 -0.791877,-13.61383 -0.245686,-17.5514 1.433285,-10.33277 4.805312,-19.84899 10.021371,-28.28137 6.286318,-10.16259 15.785293,-18.83252 27.325424,-24.94054 1.423684,-0.75354 2.588516,-1.32003 2.588516,-1.25886 0,0.0612 -0.628529,1.43349 -1.396735,3.04962 -3.647098,7.6727 -5.374393,16.05634 -4.709023,22.85583 0.328746,3.35947 1.126706,6.76998 2.285753,9.76937 1.631325,4.22156 5.421663,9.64458 9.160123,13.10582 l 1.762292,1.63161 -1.088959,0.2803 c -6.065284,1.56121 -10.805054,4.26111 -14.749076,8.40147 -3.577852,3.75596 -5.577691,7.88606 -6.142508,12.68561 -0.842036,7.15526 2.277447,15.18171 8.009449,20.60835 6.042051,5.72017 13.930375,7.94218 21.406984,6.02998 2.58028,-0.65992 4.69824,-1.83333 6.67084,-3.69585 2.94806,-2.78353 4.4886,-6.18906 4.7235,-10.44184 0.23982,-4.34181 -1.11056,-7.93883 -4.09501,-10.90795 -3.0376,-3.022 -6.35933,-4.49196 -10.601284,-4.69136 -4.382133,-0.206 -7.775505,1.04456 -10.742275,3.95884 -1.526217,1.49921 -1.767414,1.87441 -2.271205,3.53304 -1.051374,3.46142 -0.283744,7.38922 1.924018,9.84478 1.436429,1.59766 2.835912,2.17185 4.842363,1.98679 2.851671,-0.26302 6.489351,-2.53749 6.324656,-3.95452 -0.06256,-0.53825 -0.225423,-0.66782 -0.923451,-0.73464 -0.640156,-0.0613 -1.190667,0.14673 -2.250196,0.85021 -2.306256,1.53127 -3.931483,1.41421 -5.451881,-0.39268 -0.850263,-1.01048 -1.223876,-2.45257 -1.2151,-4.6901 0.0171,-4.35944 2.860535,-6.72438 8.123174,-6.75618 6.080891,-0.0367 11.151201,3.31852 12.283331,8.12846 0.93308,3.96427 -0.14625,7.6577 -3.08449,10.55503 -4.661195,4.59627 -12.138774,5.42271 -18.61516,2.05738 -4.034791,-2.09659 -7.943195,-6.97312 -9.735335,-12.14679 -0.791853,-2.28599 -0.903844,-2.92922 -0.997899,-5.73169 -0.08716,-2.59686 -0.01147,-3.55317 0.426709,-5.39207 1.798874,-7.54919 7.929591,-13.25457 16.038164,-14.92548 2.539912,-0.52339 8.164949,-0.53663 11.333991,-0.0267 13.1245,2.11194 22.77255,10.91998 25.03699,22.85714 0.55582,2.93004 0.51747,8.10781 -0.0815,10.99788 -2.43261,11.73844 -11.73615,21.19262 -25.31426,25.72413 -4.623263,1.54295 -7.107177,1.95758 -12.341353,2.06008 -2.569576,0.0503 -5.351417,-0.0146 -6.181869,-0.14431 z"
       id="path4393"
       inkscape:connector-curvature="0" />
    <path
       inkscape:connector-curvature="0"
       id="path4505"
       d="m 81.050905,228.21728 c -19.335913,-3.01957 -34.37891,-20.53484 -38.053443,-44.30741 -0.661187,-4.27758 -0.791877,-13.61383 -0.245686,-17.5514 1.433285,-10.33277 4.805312,-19.84899 10.021371,-28.28137 6.286318,-10.16259 15.785293,-18.83252 27.325424,-24.94054 1.423684,-0.75354 2.588516,-1.32003 2.588516,-1.25886 0,0.0612 -0.628529,1.43349 -1.396735,3.04962 -3.647098,7.6727 -5.374393,16.05634 -4.709023,22.85583 0.328746,3.35947 1.126706,6.76998 2.285753,9.76937 1.631325,4.22156 5.421663,9.64458 9.160123,13.10582 l 1.762292,1.63161 -1.088959,0.2803 c -6.065284,1.56121 -10.805054,4.26111 -14.749076,8.40147 -3.577852,3.75596 -5.577691,7.88606 -6.142508,12.68561 -0.842036,7.15526 2.277447,15.18171 8.009449,20.60835 6.042051,5.72017 13.930375,7.94218 21.406984,6.02998 2.58028,-0.65992 4.698243,-1.83333 6.670843,-3.69585 2.94806,-2.78353 4.4886,-6.18906 4.7235,-10.44184 0.23982,-4.34181 -1.11056,-7.93883 -4.09501,-10.90795 -3.0376,-3.022 -6.359333,-4.49196 -10.601287,-4.69136 -4.382133,-0.206 -7.775505,1.04456 -10.742275,3.95884 -1.526217,1.49921 -1.767414,1.87441 -2.271205,3.53304 -1.051374,3.46142 -0.283744,7.38922 1.924018,9.84478 1.436429,1.59766 2.835912,2.17185 4.842363,1.98679 2.851671,-0.26302 6.489351,-2.53749 6.324656,-3.95452 -0.06256,-0.53825 -0.225423,-0.66782 -0.923451,-0.73464 -0.640156,-0.0613 -1.190667,0.14673 -2.250196,0.85021 -2.306256,1.53127 -3.931483,1.41421 -5.451881,-0.39268 -0.850263,-1.01048 -1.223876,-2.45257 -1.2151,-4.6901 0.0171,-4.35944 2.860535,-6.72438 8.123174,-6.75618 6.080891,-0.0367 11.151204,3.31852 12.283334,8.12846 0.93308,3.96427 -0.14625,7.6577 -3.08449,10.55503 -4.661198,4.59627 -12.138777,5.42271 -18.615163,2.05738 -4.034791,-2.09659 -7.943195,-6.97312 -9.735335,-12.14679 -0.791853,-2.28599 -0.903844,-2.92922 -0.997899,-5.73169 -0.08716,-2.59686 -0.01147,-3.55317 0.426709,-5.39207 1.798874,-7.54919 7.929591,-13.25457 16.038164,-14.92548 2.539912,-0.52339 8.164949,-0.53663 11.333991,-0.0267 13.124503,2.11194 22.772553,10.91998 25.036993,22.85714 0.55582,2.93004 0.51747,8.10781 -0.0815,10.99788 -2.43261,11.73844 -11.73615,21.19262 -25.314263,25.72413 -4.623263,1.54295 -7.107177,1.95758 -12.341353,2.06008 -2.569576,0.0503 -5.351417,-0.0146 -6.181869,-0.14431 z"
       style="fill:#fff6a8;fill-opacity:1;stroke:none" />
    <path
       style="fill:#d3d3d3;fill-opacity:1;stroke:none"
       d="m 76.050905,71.074423 c -19.335913,-3.01957 -34.37891,-20.53484 -38.053443,-44.30741 -0.661187,-4.27758 -0.791877,-13.61383 -0.245686,-17.5514003 1.433285,-10.33277 4.805312,-19.8489897 10.021371,-28.2813697 6.286318,-10.16259 15.785293,-18.83252 27.325424,-24.94054 1.423684,-0.75354 2.588516,-1.32003 2.588516,-1.25886 0,0.0612 -0.628529,1.43349 -1.396735,3.04962 -3.647098,7.6727 -5.374393,16.05634 -4.709023,22.85583 0.328746,3.35947 1.126706,6.76998 2.285753,9.7693697 1.631325,4.22156 5.421663,9.64457999 9.160123,13.10582 l 1.762292,1.63161 -1.088959,0.2803 c -6.065284,1.56121 -10.805054,4.26111 -14.749076,8.4014703 -3.577852,3.75596 -5.577691,7.88606 -6.142508,12.68561 -0.842036,7.15526 2.277447,15.18171 8.009449,20.60835 6.042051,5.72017 13.930375,7.94218 21.406984,6.02998 2.58028,-0.65992 4.698243,-1.83333 6.670843,-3.69585 2.94806,-2.78353 4.4886,-6.18906 4.7235,-10.44184 0.23982,-4.34181 -1.11056,-7.93883 -4.09501,-10.90795 -3.0376,-3.022 -6.359333,-4.49196 -10.601287,-4.69136 -4.382133,-0.206 -7.775505,1.04456 -10.742275,3.95884 -1.526217,1.49921 -1.767414,1.87441 -2.271205,3.53304 -1.051374,3.46142 -0.283744,7.38922 1.924018,9.84478 1.436429,1.59766 2.835912,2.17185 4.842363,1.98679 2.851671,-0.26302 6.489351,-2.53749 6.324656,-3.95452 -0.06256,-0.53825 -0.225423,-0.66782 -0.923451,-0.73464 -0.640156,-0.0613 -1.190667,0.14673 -2.250196,0.85021 -2.306256,1.53127 -3.931483,1.41421 -5.451881,-0.39268 -0.850263,-1.01048 -1.223876,-2.45257 -1.2151,-4.6901 0.0171,-4.35944 2.860535,-6.72438 8.123174,-6.75618 6.080891,-0.0367 11.151204,3.31852 12.283334,8.12846 0.93308,3.96427 -0.14625,7.6577 -3.08449,10.55503 -4.661198,4.59627 -12.138777,5.42271 -18.615163,2.05738 -4.034791,-2.09659 -7.943195,-6.97312 -9.735335,-12.14679 -0.791853,-2.28599 -0.903844,-2.92922 -0.997899,-5.73169 -0.08716,-2.59686 -0.01147,-3.55317 0.426709,-5.39207 1.798874,-7.54919 7.929591,-13.25457 16.038164,-14.9254803 2.539912,-0.52339 8.164949,-0.53663 11.333991,-0.0267 13.124503,2.1119403 22.772553,10.9199803 25.036993,22.8571403 0.55582,2.93004 0.51747,8.10781 -0.0815,10.99788 -2.43261,11.73844 -11.73615,21.19262 -25.314263,25.72413 -4.623263,1.54295 -7.107177,1.95758 -12.341353,2.06008 -2.569576,0.0503 -5.351417,-0.0146 -6.181869,-0.14431 z"
       id="path4583"
       inkscape:connector-curvature="0" />
  </g>
  <g
     inkscape:groupmode="layer"
     id="layer4"
     inkscape:label="Layer 4"
     transform="translate(-31.853238,55.726149)"
     style="display:inline">
    <path
       style="fill:#c8c4b7;fill-opacity:1;fill-rule:evenodd;stroke:none;stroke-width:1px;stroke-linecap:butt;stroke-linejoin:miter;stroke-opacity:1"
       d="m 47.592287,293.89587 c 0,0 -1.515229,13.13198 7.071068,17.17259 8.586297,4.04061 21.213204,1.76777 25.253814,5.05076 4.04061,3.283 1.010152,5.80838 3.535534,8.33376 2.525381,2.52538 7.323606,4.79823 10.354063,4.79823 3.030458,0 6.313454,-1.26269 8.838834,0.50507 2.52538,1.76777 7.57614,6.31346 7.57614,9.59645 0,3.283 -4.0406,10.85914 0.25254,18.43529 4.29315,7.57614 7.07107,6.06091 9.09138,5.05076 2.0203,-1.01015 5.3033,-3.03046 5.3033,-3.03046 l 5.55584,-12.87944 0,-9.09138 -4.04062,-13.38452 -7.82868,-7.82868 -12.87944,-6.06091 -8.586298,-0.25254 -5.303301,-6.06092 -7.323606,-13.63706 -1.515229,-11.61675 3.030458,-12.37437 4.293148,-8.33376 -3.030457,-3.28299 -13.889598,7.07106 -11.616754,9.84899 -10.101526,13.63706 z"
       id="path4395"
       inkscape:connector-curvature="0" />
    <path
       inkscape:connector-curvature="0"
       id="path4507"
       d="m 44.735144,147.4673 c 0,0 -1.515229,13.13198 7.071068,17.17259 8.586297,4.04061 21.213204,1.76777 25.253814,5.05076 4.04061,3.283 1.010152,5.80838 3.535534,8.33376 2.525381,2.52538 7.323606,4.79823 10.354063,4.79823 3.030458,0 6.313454,-1.26269 8.838834,0.50507 2.525383,1.76777 7.576143,6.31346 7.576143,9.59645 0,3.283 -4.0406,10.85914 0.25254,18.43529 4.29315,7.57614 7.07107,6.06091 9.09138,5.05076 2.0203,-1.01015 5.3033,-3.03046 5.3033,-3.03046 l 5.55584,-12.87944 0,-9.09138 -4.04062,-13.38452 -7.82868,-7.82868 -12.87944,-6.06091 -8.586301,-0.25254 -5.303301,-6.06092 -7.323606,-13.63706 -1.515229,-11.61675 3.030458,-12.37437 4.293148,-8.33376 -3.030457,-3.28299 -13.889598,7.07106 -11.616754,9.84899 -10.101526,13.63706 z"
       style="fill:#a6865f;fill-opacity:0.93006993;fill-rule:evenodd;stroke:none;stroke-width:1px;stroke-linecap:butt;stroke-linejoin:miter;stroke-opacity:1" />
    <path
       style="fill:#c4bd84;fill-opacity:1;fill-rule:evenodd;stroke:none;stroke-width:1px;stroke-linecap:butt;stroke-linejoin:miter;stroke-opacity:1"
       d="m 42.924667,185.69833 c 0,0 3.928572,-2.14286 9.821429,0.71429 5.892857,2.85714 15.178571,8.75 19.821428,13.92857 4.642858,5.17857 5.357143,12.14285 9.821429,15.53571 4.464286,3.39286 13.571429,5 17.321429,7.32143 3.749998,2.32143 1.964288,4.10714 0.535718,4.64286 -1.428576,0.53571 -9.107147,1.42857 -9.107147,1.42857 l -9.464286,0 -8.928571,-1.96429 -5.892857,-3.39285 -6.607143,-4.46429 -8.571429,-9.82143 -4.642857,-9.10714 -2.678571,-6.60714 z"
       id="path4517"
       inkscape:connector-curvature="0" />
    <path
       style="fill:#828282;fill-opacity:0.93006993;fill-rule:evenodd;stroke:none;stroke-width:1px;stroke-linecap:butt;stroke-linejoin:miter;stroke-opacity:1"
       d="m 39.735144,-9.6755573 c 0,0 -1.515229,13.13198 7.071068,17.17259 8.586297,4.0406103 21.213204,1.76777 25.253814,5.0507603 4.04061,3.283 1.010152,5.80838 3.535534,8.33376 2.525381,2.52538 7.323606,4.79823 10.354063,4.79823 3.030458,0 6.313454,-1.26269 8.838834,0.50507 2.525383,1.76777 7.576143,6.31346 7.576143,9.59645 0,3.283 -4.0406,10.85914 0.25254,18.43529 4.29315,7.57614 7.07107,6.06091 9.09138,5.05076 2.0203,-1.01015 5.3033,-3.03046 5.3033,-3.03046 l 5.55584,-12.87944 0,-9.09138 -4.04062,-13.38452 -7.82868,-7.82868 -12.87944,-6.0609103 -8.586301,-0.25254 -5.303301,-6.06092001 -7.323606,-13.63705969 -1.515229,-11.61675 3.030458,-12.37437 4.293148,-8.33376 -3.030457,-3.28299 -13.889598,7.07106 -11.616754,9.84899 -10.101526,13.63706 z"
       id="path4585"
       inkscape:connector-curvature="0" />
    <path
       inkscape:connector-curvature="0"
       id="path4587"
       d="m 37.924667,28.555473 c 0,0 3.928572,-2.14286 9.821429,0.71429 5.892857,2.85714 15.178571,8.75 19.821428,13.92857 4.642858,5.17857 5.357143,12.14285 9.821429,15.53571 4.464286,3.39286 13.571429,5 17.321429,7.32143 3.749998,2.32143 1.964288,4.10714 0.535718,4.64286 -1.428576,0.53571 -9.107147,1.42857 -9.107147,1.42857 l -9.464286,0 -8.928571,-1.96429 -5.892857,-3.39285 -6.607143,-4.46429 -8.571429,-9.82143 -4.642857,-9.10714 -2.678571,-6.60714 z"
       style="fill:#a4a4a4;fill-opacity:1;fill-rule:evenodd;stroke:none;stroke-width:1px;stroke-linecap:butt;stroke-linejoin:miter;stroke-opacity:1" />
  </g>
  <g
     inkscape:groupmode="layer"
     id="layer3"
     inkscape:label="Layer 3"
     transform="translate(-31.853238,55.726149)"
     style="display:inline">
    <path
       style="fill:#aaeeff"
       d="m 123.24718,318.33696 c -0.30611,-0.12196 -1.52176,-1.05124 -2.70144,-2.06508 -4.13075,-3.55006 -8.83719,-6.01671 -13.64424,-7.15097 -7.686015,-1.81357 -8.679588,-1.91487 -11.026542,-1.12424 l -1.522632,0.51294 -1.668099,-1.45995 c -5.966386,-5.22191 -10.019551,-12.04208 -11.598441,-19.51644 -0.55191,-2.6127 -0.619394,-9.25516 -0.123151,-12.12183 0.903421,-5.21882 3.013349,-11.32465 5.421078,-15.68782 l 1.307091,-2.36865 2.020305,-0.80497 c 4.912059,-1.95715 9.07424,-2.85593 14.047371,-3.03336 4.62525,-0.16503 6.7964,0.19114 9.76206,1.60143 3.72888,1.77323 5.68115,4.65879 8.2538,12.19954 5.45422,15.98702 7.71593,41.89225 4.28978,49.13453 -0.8647,1.82784 -1.64669,2.35108 -2.81694,1.88487 z"
       id="path3569"
       inkscape:connector-curvature="0" />
    <path
       inkscape:connector-curvature="0"
       id="path4509"
       d="m 120.39004,171.90839 c -0.30611,-0.12196 -1.52176,-1.05124 -2.70144,-2.06508 -4.13075,-3.55006 -8.83719,-6.01671 -13.64424,-7.15097 -7.686018,-1.81357 -8.046438,-0.76896 -10.521469,-0.6823 l -1.301661,0.1657 -2.394146,-1.55465 c -6.649822,-4.3181 -10.019551,-12.04208 -11.598441,-19.51644 -0.55191,-2.6127 -0.619394,-9.25516 -0.123151,-12.12183 0.903421,-5.21882 3.013349,-11.32465 5.421078,-15.68782 l 1.307091,-2.36865 2.020305,-0.80497 c 4.912059,-1.95715 9.07424,-2.85593 14.047374,-3.03336 4.62525,-0.16503 6.7964,0.19114 9.76206,1.60143 3.72888,1.77323 5.68115,4.65879 8.2538,12.19954 5.45422,15.98702 7.71593,41.89225 4.28978,49.13453 -0.8647,1.82784 -1.64669,2.35108 -2.81694,1.88487 z"
       style="fill:#77809d;fill-opacity:1"
       sodipodi:nodetypes="cssscsssscsssssc" />
    <path
       sodipodi:nodetypes="cssscsssscsssssc"
       style="fill:#8a8a8a;fill-opacity:1"
       d="m 115.39004,14.765533 c -0.30611,-0.12196 -1.52176,-1.05124 -2.70144,-2.06508 -4.13075,-3.5500603 -8.83719,-6.0167103 -13.64424,-7.1509703 -7.686018,-1.81357 -8.046438,-0.76896 -10.521469,-0.6823 l -1.301661,0.1657 -2.394146,-1.55465 c -6.649822,-4.31810001 -10.019551,-12.04208 -11.598441,-19.5164397 -0.55191,-2.6127 -0.619394,-9.25516 -0.123151,-12.12183 0.903421,-5.21882 3.013349,-11.32465 5.421078,-15.68782 l 1.307091,-2.36865 2.020305,-0.80497 c 4.912059,-1.95715 9.07424,-2.85593 14.047374,-3.03336 4.62525,-0.16503 6.7964,0.19114 9.76206,1.60143 3.72888,1.77323 5.68115,4.65879 8.2538,12.19954 5.45422,15.98702 7.71593,41.8922497 4.28978,49.13453 -0.8647,1.82784 -1.64669,2.35108 -2.81694,1.88487 z"
       id="path4589"
       inkscape:connector-curvature="0" />
  </g>
  <g
     inkscape:groupmode="layer"
     id="layer2"
     inkscape:label="Layer 2"
     transform="translate(-31.853238,55.726149)"
     style="display:inline">
    <path
       style="fill:#c6eeff;fill-opacity:1;fill-rule:evenodd;stroke:none;stroke-width:1px;stroke-linecap:butt;stroke-linejoin:miter;stroke-opacity:1"
       d="m 94.059304,309.30069 c 0,0 12.121836,-3.03045 10.354066,-22.47589 -1.76777,-19.44544 -5.555841,-22.72843 -0.50508,-29.04188 5.05076,-6.31346 8.08122,-8.08122 8.08122,-8.08122 l 6.06092,5.3033 8.08122,14.89975 3.03045,20.70812 1.01016,16.92006 -1.51523,8.83883 -3.283,5.80838 -9.09137,-7.07107 -11.11168,-3.78807 z"
       id="path3571"
       inkscape:connector-curvature="0" />
    <path
       inkscape:connector-curvature="0"
       id="path4511"
       d="m 91.202161,162.87212 c 0,0 11.574439,-4.92512 13.889599,-19.69797 1.90134,-12.13228 -0.19966,-26.10928 -5.05076,-32.57741 l -3.788075,-5.05077 18.940365,3.03046 8.08122,14.89975 3.03045,20.70812 1.01016,16.92006 -1.51523,8.83883 -3.72943,5.27267 -9.22212,-6.92128 -10.5345,-3.40215 z"
       style="fill:#96b9e4;fill-opacity:1;fill-rule:evenodd;stroke:none;stroke-width:1px;stroke-linecap:butt;stroke-linejoin:miter;stroke-opacity:1"
       sodipodi:nodetypes="csscccccccccc" />
    <path
       style="fill:#ffffff;fill-opacity:0.24475523;fill-rule:evenodd;stroke:none;stroke-width:1px;stroke-linecap:butt;stroke-linejoin:miter;stroke-opacity:1"
       d="m 66.111768,224.65319 c 0,0 5.555839,0 8.586296,-7.07107 3.030458,-7.07107 -4.545686,-21.2132 -1.515228,-28.78935 3.030457,-7.57614 6.877233,-17.58324 16.667516,-24.74873 7.290791,-5.33612 10.314738,-10.29122 12.121828,-18.43529 1.40387,-6.32683 1.84145,-16.1578 0.50508,-20.45559 -1.33623,-4.29732 -2.525382,-10.6066 -6.565992,-14.64721 -4.04061,-4.04061 1.515229,-5.55584 1.515229,-5.55584 l 5.555843,0 5.05076,1.51523 5.05076,1.51523 6.06092,7.57614 4.04061,15.15229 2.52538,21.2132 -2.52538,17.1726 -8.08122,1.01015 8.08122,10.6066 4.04061,12.62691 -1.01016,11.61675 -6.56599,12.12183 -10.10152,7.07107 -13.637062,5.55584 -14.142136,1.01015 -10.101525,-3.03046 z"
       id="path4538"
       inkscape:connector-curvature="0"
       sodipodi:nodetypes="csssssscccccccccccccccccc" />
    <path
       sodipodi:nodetypes="csscccccccccc"
       style="fill:#bdbdbd;fill-opacity:1;fill-rule:evenodd;stroke:none;stroke-width:1px;stroke-linecap:butt;stroke-linejoin:miter;stroke-opacity:1"
       d="m 86.202161,5.7292627 c 0,0 11.574439,-4.92512001 13.889599,-19.6979697 1.90134,-12.13228 -0.19966,-26.10928 -5.05076,-32.57741 l -3.788075,-5.05077 18.940365,3.03046 8.08122,14.89975 3.03045,20.70812 1.01016,16.9200597 -1.51523,8.8388303 -3.72943,5.27267 -9.22212,-6.92128 -10.5345,-3.4021503 z"
       id="path4591"
       inkscape:connector-curvature="0" />
    <path
       sodipodi:nodetypes="csssssscccccccccccccccccc"
       inkscape:connector-curvature="0"
       id="path4593"
       d="m 61.111768,67.510333 c 0,0 5.555839,0 8.586296,-7.07107 3.030458,-7.07107 -4.545686,-21.2132 -1.515228,-28.78935 3.030457,-7.57614 6.877233,-17.58324 16.667516,-24.7487303 7.290791,-5.33612 10.314738,-10.29122 12.121828,-18.4352897 1.40387,-6.32683 1.854913,-15.815976 0.518543,-20.113766 -1.33623,-4.29732 -2.538845,-10.948424 -6.579455,-14.989034 -4.04061,-4.04061 1.515229,-5.55584 1.515229,-5.55584 l 5.555843,0 5.05076,1.51523 5.05076,1.51523 6.06092,7.57614 4.04061,15.15229 2.52538,21.2131997 -2.52538,17.1726003 -8.08122,1.01015 8.08122,10.6066 4.04061,12.62691 -1.01016,11.61675 -6.56599,12.12183 -10.10152,7.07107 -13.637062,5.55584 -14.142136,1.01015 -10.101525,-3.03046 z"
       style="fill:#ffffff;fill-opacity:0.24475523;fill-rule:evenodd;stroke:none;stroke-width:1px;stroke-linecap:butt;stroke-linejoin:miter;stroke-opacity:1" />
  </g>
  <g
     inkscape:label="Layer 1"
     inkscape:groupmode="layer"
     id="layer1"
     transform="translate(-31.853238,55.726149)"
     style="display:inline">
    <path
       style="fill:none;fill-rule:evenodd;stroke:#000000;stroke-width:1px;stroke-linecap:butt;stroke-linejoin:miter;stroke-opacity:1"
       d="m 94.642857,309.50506 c -29.174951,-23.01559 -6.053481,-54.70414 -6.053481,-54.70414 0,0 12.124914,-6.36729 20.339194,-4.22443 8.21429,2.14285 17.85714,10 20.71429,36.42857 2.85714,26.42857 2.14285,18.57143 -0.71429,26.07143 -2.85714,7.5 -1.78571,11.78571 -16.07143,1.42857 -14.285712,-10.35714 -18.214283,-5 -18.214283,-5 z"
       id="path3543"
       inkscape:connector-curvature="0"
       sodipodi:nodetypes="ccssssc" />
    <path
       inkscape:connector-curvature="0"
       id="path4447"
       d="M 81.912055,378.10913 C 40.329501,367.46738 26.008401,314.01164 54.737531,276.67598 c 14.512114,-18.85958 53.429429,-35.1949 62.823379,-26.36974 11.85729,11.13936 18.74375,51.51606 11.80309,69.20387 -1.21178,3.08813 -0.99901,5.11944 1.27799,12.20089 8.63739,26.86234 -19.6865,53.83087 -48.729935,46.39813 z m 25.514625,-7.11893 c 33.12872,-15.24533 24.89791,-58.31005 -11.144588,-58.31005 -19.862707,0 -28.859277,21.12748 -15.175057,35.63699 10.317097,10.93931 29.273575,4.06216 26.286805,-9.5365 -2.07449,-9.44516 -19.608415,-11.43909 -20.669455,-2.35049 -0.7029,6.02085 3.153757,9.40252 7.042497,6.17515 1.01487,-0.84227 2.25262,-1.124 2.75055,-0.62607 1.31161,1.3116 -3.45548,4.45092 -6.75877,4.45092 -6.078857,0 -8.920237,-10.28673 -4.157047,-15.04992 9.849327,-9.84933 27.445165,-1.32739 25.596995,12.39702 -2.44934,18.18873 -28.561925,18.27713 -37.834415,0.12808 -13.868594,-27.14498 25.116137,-48.46596 48.134155,-26.32487 9.45181,9.09171 7.54936,-35.98545 -2.39758,-56.80923 -7.92111,-16.58272 -45.390985,-3.64444 -62.263089,21.49931 -31.58162,47.06471 4.31338,110.01498 50.588999,88.71966 z"
       style="fill:#000000;fill-opacity:1"
       sodipodi:nodetypes="sssssssssssssssssssss" />
    <path
       sodipodi:nodetypes="sssssssssssssssssssssssssssss"
       style="fill:#ffffff;fill-opacity:1;stroke:none;stroke-opacity:1"
       d="M 79.054912,231.68056 C 37.472358,221.03881 23.151258,167.58307 51.880388,130.24741 66.392502,111.38783 105.30982,95.052508 114.70377,103.87767 c 11.85729,11.13936 15.96583,60.10236 11.80309,69.20387 -1.37979,3.01681 -0.99901,5.11944 1.27799,12.20089 8.63739,26.86234 -19.6865,53.83087 -48.729938,46.39813 z m 25.514628,-7.11893 c 33.12872,-15.24533 24.89791,-58.31005 -11.144591,-58.31005 -19.862707,0 -28.859277,21.12748 -15.175057,35.63699 10.317097,10.93931 29.273578,4.06216 26.286808,-9.5365 -2.07449,-9.44516 -19.608418,-11.43909 -20.669458,-2.35049 -0.7029,6.02085 3.153761,9.40252 7.042497,6.17515 0.507435,-0.42113 1.07059,-0.70213 1.569128,-0.81561 0.498537,-0.11347 0.932457,-0.0594 1.181422,0.18954 0.655803,0.6558 -0.208067,1.76853 -1.648799,2.71731 -1.440732,0.94878 -3.458326,1.73361 -5.109971,1.73361 -3.039428,0 -5.269488,-2.57168 -6.144291,-5.73876 -0.874803,-3.16708 -0.394351,-6.92957 1.987244,-9.31116 4.924664,-4.92466 11.785956,-5.25651 17.185061,-2.64164 5.399107,2.61487 9.336027,8.17645 8.411937,15.03866 -1.22467,9.09436 -8.365156,13.66365 -16.358531,13.69071 -7.993375,0.0271 -16.839642,-4.48811 -21.475887,-13.56263 -6.934292,-13.57249 -0.655257,-25.68898 10.234602,-31.64471 10.88986,-5.95573 19.516636,-2.65 31.739926,0.5634 6.34187,1.66723 11.63645,1.56862 11.09895,-11.16717 -0.5375,-12.7358 -2.36343,-30.47373 -7.3369,-40.88562 -3.96055,-8.29136 -15.3083,-9.20247 -27.774922,-4.89777 -12.466621,4.3047 -26.052118,13.8252 -34.48817,26.39708 -31.581629,47.0647 4.31338,110.01498 50.589002,88.71966 z"
       id="path4515"
       inkscape:connector-curvature="0" />
    <path
       sodipodi:nodetypes="csssssssssssssssssssssssssssssssssssssssssssssssssssssssssssssssssssssccsssssssscssccssssssssssssssssssssssssssssssssssssssssssssssssssssssssssssssssssssssssssssssssscsssssssssssssssssssssssssssssssssssssssccsccsscccssss"
       inkscape:connector-curvature="0"
       id="path4595"
       d="m 236.21414,80.47905 c -11.91817,-7.015841 -6.85126,-31.433 7.98065,-38.458066 13.5064,-6.397259 23.21253,8.091454 11.82788,17.655942 -4.22041,3.545651 -7.51783,4.080467 -9.83537,1.595223 -2.40051,-2.574246 -1.53895,-4.617281 2.0707,-4.910194 6.92984,-0.562334 9.62663,-13.192604 2.86726,-13.428646 -5.54422,-0.193609 -12.36551,11.089865 -12.76198,21.110252 -0.63384,16.018409 18.4908,20.049112 24.20606,5.101679 2.63529,-6.892148 8.09105,-11.771368 12.97174,-11.600929 8.89967,0.310782 8.16505,8.122262 -1.17394,12.482852 -5.26883,2.46014 -5.94076,4.219012 -2.50519,6.557606 5.22393,3.555908 14.28866,-4.217902 13.13366,-11.263251 -0.71415,-4.356398 1.75498,-8.636525 4.91853,-8.52605 1.78534,0.06235 2.4248,0.937183 2.34548,3.208809 -0.06,1.717704 0.4123,3.141303 1.0495,3.163555 0.63722,0.02225 2.31313,-1.326332 3.72426,-2.996852 4.3409,-5.138835 5.39038,-3.455802 2.5167,4.03598 -5.66153,14.759679 0.87902,17.084706 8.09148,2.876339 3.89773,-7.678526 13.60115,-12.1574 17.43404,-8.047152 0.89981,0.964911 2.18326,0.820928 4.3399,-0.486905 4.17661,-2.53282 4.42637,-1.80169 2.05286,6.009303 -2.56934,8.455434 -2.75644,12.353198 -0.59669,12.42862 2.66779,0.09315 5.43828,-3.696327 7.42872,-10.161042 2.05578,-6.676954 4.37695,-9.438888 7.83116,-9.318265 1.99818,0.06978 2.14984,0.611001 1.08742,3.880244 -1.23459,3.799138 -1.23459,3.799138 3.86036,-0.490574 2.80221,-2.359361 5.54305,-4.274083 6.09072,-4.254959 1.80013,0.06286 3.89084,3.092585 3.80624,5.515686 -0.0718,2.055168 0.53486,1.87257 4.46815,-1.344883 10.03927,-8.212236 12.58532,-2.922518 6.82503,14.179838 -0.45266,1.343922 -0.0605,2.186728 1.03577,2.225004 2.94568,0.102865 5.75571,-3.818354 7.81024,-10.898706 1.61023,-5.549304 2.56327,-6.90606 5.44894,-7.757271 4.67436,-1.378835 4.78752,-1.062095 2.4125,6.753792 -2.56196,8.431222 -2.69424,11.104606 -0.55303,11.179376 2.37037,0.08278 5.45672,-3.54369 6.62525,-7.784692 1.6112,-5.847613 9.02257,-11.923671 13.76525,-11.285185 5.27068,0.709577 7.5106,4.489431 4.06769,6.864231 -3.52499,2.431413 -4.52447,2.095725 -4.39971,-1.477658 0.13138,-3.761264 -2.93611,-4.308815 -4.92831,-0.879701 -1.87675,3.230421 -2.0435,11.677218 -0.26817,13.581087 4.65705,4.994083 9.60442,1.277146 20.76063,-15.597467 4.23256,-6.402066 8.01981,-2.842272 10.04001,9.43708 0.64952,3.947882 -3.781,9.505187 -9.2279,11.574851 -6.13141,2.329737 -10.77354,-1.707311 -6.52202,-5.671919 1.25158,-1.167122 1.97746,-0.918389 3.44974,1.182084 4.4555,6.356686 9.2189,-1.039059 5.2019,-8.076595 -2.58565,-4.529939 -2.58565,-4.529939 -4.97529,-0.892821 -8.61787,13.116772 -19.49174,18.111343 -25.47106,11.6993 -2.50701,-2.68843 -2.53348,-2.690146 -5.3038,-0.341508 -5.79454,4.912476 -8.10079,5.284346 -10.70405,1.725935 -1.40246,-1.917003 -2.72454,-2.727236 -3.22548,-1.976661 -5.94906,8.914362 -14.65808,3.603285 -11.57404,-7.058286 2.27404,-7.861279 1.41406,-9.652222 -2.66433,-5.548614 -2.01363,2.026107 -3.72735,5.527964 -4.35322,8.895592 -1.01369,5.454186 -3.46299,7.977203 -7.60374,7.832604 -1.56746,-0.05473 -1.53481,-1.153596 0.24959,-8.397075 2.86434,-11.627549 2.33984,-13.137963 -2.77288,-7.984885 -3.30394,3.330003 -4.20303,5.275651 -4.34732,9.407772 -0.1257,3.597975 -0.8014,5.422735 -2.18442,5.898776 -3.68491,1.268363 -5.54663,0.587146 -5.4564,-1.99651 0.0859,-2.458739 -0.0835,-2.43943 -4.19978,0.478724 -5.41031,3.835566 -7.93574,3.753201 -9.89315,-0.322566 -1.54721,-3.221739 -1.54721,-3.221739 -4.62998,-0.161688 -4.748,4.712998 -12.63184,2.459253 -12.42195,-3.551083 0.0344,-0.982965 -1.74858,-0.07407 -4.19928,2.14068 -7.89908,7.138636 -14.55226,2.712987 -10.19111,-6.779073 2.30888,-5.025333 0.90411,-6.055348 -2.5915,-1.900159 -10.88252,12.935973 -18.76504,16.189701 -24.45059,10.092653 -2.44328,-2.620085 -2.44328,-2.620085 -7.93933,0.348135 -6.31746,3.411872 -14.57964,3.623214 -19.87107,0.508308 z m 81.23734,-3.66699 c 2.44996,-1.500673 5.78916,-8.560056 5.92786,-12.532035 0.27836,-7.971022 -7.69965,-3.459273 -9.70366,5.48762 -1.40236,6.260871 0.19366,9.238567 3.7758,7.044415 z M 275.65337,63.347475 c 0.33226,-2.135677 -0.0852,-3.300696 -1.19669,-3.33951 -2.76765,-0.09665 -4.80079,2.573423 -4.93734,6.484099 -0.16904,4.842573 5.32993,2.023486 6.13403,-3.144589 z m -139.72194,5.155158 c 3.87868,0.09302 20.27836,0.185989 36.44374,0.206595 28.90804,0.03687 32.50959,0.292566 32.4394,2.3031 -0.0491,1.402337 -13.24149,1.816085 -47.89663,1.502189 -8.87417,4.63799 -41.16134,-4.416992 -20.98651,-4.011884 z m 322.23697,0.378306 c -1.34714,-2.3601 0.22927,-2.456604 38.98613,-2.386737 31.52293,0.05683 38.65665,0.373245 39.44631,1.749643 0.76845,1.339444 -2.13754,1.734547 -14.32658,1.947844 -33.575,0.587554 -63.37007,-0.02166 -64.10586,-1.31075 z M 383.86012,51.559855 c 0.0946,-2.71155 3.66842,-5.298193 6.63844,-4.804889 4.94374,0.821124 2.36739,6.131087 -2.88576,5.947642 -2.08338,-0.07275 -3.77209,-0.586992 -3.75268,-1.142753 z M 160.18244,27.674438 C 139.07472,22.374553 125.62759,5.1742852 134.43791,-5.2555355 c 2.76952,-3.2785934 17.80418,-10.2977615 21.76127,-10.1595675 4.22938,0.147688 2.4192,2.225973 -4.7142,5.412475 -12.53464,5.599247 -11.82014,13.6338477 1.88192,21.162183 25.65352,14.09488 71.21513,-6.0790528 60.73748,-26.893562 -5.68711,-11.297751 -17.45227,-13.521577 -42.44871,-8.023545 -20.52754,4.515106 -29.31795,3.350991 -30.91252,-4.093767 -3.03511,-14.170604 42.58732,-32.772678 52.99745,-21.609157 3.17607,3.405884 2.21386,4.97932 -1.6664,2.725036 -11.38848,-6.61627 -38.82436,4.305526 -39.2192,15.612552 -0.18612,5.327647 0.7243,5.441507 15.11587,1.890753 15.69664,-3.872755 16.20884,-3.936017 29.52943,-3.647419 19.90493,0.431256 25.73188,5.007471 25.30514,19.873441 -0.64995,22.6431039 -37.95222,46.875048 -62.623,40.680551 z m 18.07329,-5.108872 c 5.91699,-1.356557 5.91699,-1.356557 -6.55059,-2.503441 -18.28595,-1.682102 -31.39211,-9.146464 -33.17943,-18.8966984 -0.45646,-2.4901915 -1.10816,-3.3111757 -1.98174,-2.4965413 -10.50309,9.7942985 22.00072,28.4157417 41.71176,23.8966807 z m 39.16072,4.775974 c -4.06413,-3.087732 -3.46577,-15.35176 1.16536,-23.8854786 9.84611,-18.1433034 36.36286,-30.4806624 31.84474,-14.8162784 -1.95069,6.7630503 -22.08196,23.479723 -28.02581,23.272164 -3.72132,-0.129951 -3.36047,8.041032 0.47473,10.749867 5.61166,3.96357 27.1782,-10.589775 29.96389,-20.220031 3.11038,-10.7525721 15.25842,-19.309708 26.83875,-18.905319 7.57509,0.264536 13.35339,4.322245 10.26121,7.2057495 -0.86121,0.8030759 -1.62115,3.045353 -1.68882,4.9828273 -0.0677,1.9374745 -1.64918,6.9323155 -3.51452,11.0996222 -4.72335,10.55247 -3.59845,13.893601 3.96632,11.780246 3.63983,-1.016872 3.15309,2.420357 -0.604,4.265413 -2.48358,1.21963 -3.63114,1.127041 -6.58019,-0.530878 -3.39876,-1.910763 -3.8145,-1.840132 -8.57393,1.456547 -6.40607,4.437225 -9.67006,4.250366 -15.10098,-0.864524 -4.31757,-4.066327 -4.43703,-4.098126 -7.78842,-2.072413 -12.06578,7.29307 -27.52904,10.364313 -32.63833,6.482486 z m 53.11407,-7.996886 c 2.80404,-2.614789 2.9927,-3.362734 1.94965,-7.729048 -1.10425,-4.6223495 -0.40181,-12.6312244 1.67374,-19.0831124 0.97045,-3.0167636 0.97045,-3.0167636 -3.1571,-0.7356274 -6.79492,3.755269 -10.04089,9.5154345 -6.95803,12.3473996 2.42721,2.2297038 2.42025,2.2633458 -1.40209,6.7577822 -7.02076,8.255282 0.0198,15.785279 7.89383,8.442606 z M 236.5257,-1.8508686 c 11.4679,-10.5264164 13.33626,-14.7531714 4.72943,-10.6992694 -5.23616,2.466308 -9.75288,6.6819337 -14.94079,13.9449228 -7.48067,10.4726792 -3.27899,9.1371922 10.21136,-3.2456534 z m 46.46453,-5.0967285 c 0.66505,-3.2625479 0.45471,-3.9327579 -1.06945,-3.4081369 -2.88417,0.9927364 -4.93851,6.123419 -5.0685,12.6584721 -0.13058,6.5646196 4.26442,-0.059016 6.13795,-9.2503352 z m 12.90706,33.2596421 c -3.42686,-4.435424 2.60385,-53.636815 7.66496,-62.534429 4.46553,-7.850578 5.17175,-4.996292 3.57218,14.437867 -1.45152,17.635468 -1.42044,18.2513503 0.82502,16.357493 7.64611,-6.44882 17.00457,-7.832989 21.36257,-3.1596414 4.19551,4.499139 8.03365,1.3039037 4.81304,-4.0068536 -2.50555,-4.131673 -0.91841,-6.051986 2.81978,-3.411697 2.78265,1.965422 3.2139,1.921137 7.10151,-0.72933 4.34833,-2.964538 15.75274,-5.686093 16.72074,-3.990216 1.1102,1.945026 -1.20025,5.031236 -5.11382,6.830736 -7.02301,3.2293 -13.64051,10.059868 -13.83744,14.28300734 C 340.92784,19.646371 325.63531,36.168316 325.23175,18.317093 c -0.17559,-7.767044 -0.42205,-7.863487 -6.36148,-2.489311 -9.35886,8.468212 -20.57559,13.587234 -22.97298,10.484263 z m 15.71259,-12.222922 c 12.97937,-12.3701754 17.02742,-19.7302811 10.968,-19.9418813 -9.64227,-0.3367093 -16.84425,6.41190598 -19.26116,18.0486403 -2.26676,10.913926 -1.38338,11.115595 8.29316,1.893241 z m 39.09278,10.958353 c -18.23738,-11.492918 14.21272,-48.37685 32.97274,-37.477985 7.71361,4.481318 -9.83614,19.620073 -22.24657,19.1903367 -9.41776,-0.325878 -15.40573,10.3771233 -7.13942,12.7614083 5.18997,1.496946 39.93475,-14.0286262 40.07012,-17.9051852 0.0232,-0.66460774 0.56769,-1.19001926 1.20995,-1.16759311 0.64228,0.022396 4.2595,-2.82523819 8.03826,-6.32817699 13.04939,-12.0968167 30.21783,-12.3325467 29.80145,-0.409189 -0.2997,8.5829021 -16.59546,19.5089233 -27.05712,18.1413653 -5.08064,-0.664149 -6.10562,0.270261 -6.29665,5.740237 -0.19482,5.581752 14.71411,1.266275 30.99652,-8.972054 2.84691,-1.7901218 6.54516,-2.952259 9.10994,-2.8626973 4.80464,0.1677786 10.32283,-2.9597552 14.23657,-8.0688931 2.58404,-3.3732782 2.58404,-3.3732782 -4.62137,-3.1043696 -5.57455,0.2080244 -7.66352,-0.2222926 -9.22931,-1.9014326 -3.31544,-3.5553934 -2.44489,-3.9206944 8.39474,-3.5226214 7.78383,0.285825 11.20686,-0.134002 13.77339,-1.689198 1.87839,-1.138255 4.52619,-2.030775 5.88396,-1.983362 1.35779,0.04735 2.83579,-0.463815 3.2844,-1.136065 1.12127,-1.680179 4.42744,-1.42548 4.36594,0.336333 -0.0945,2.704348 -9.38969,12.0496588 -17.58123,17.6759567 -8.97446,6.1640107 -9.98193,8.1302473 -5.19716,10.1432193 8.09238,3.404511 14.43758,1.016939 18.1411,-6.8261587 5.60589,-11.871762 15.15571,-17.1592303 31.56961,-17.4791793 24.77914,-0.482994 17.79294,12.06300896 -10.5666,18.9758328 -12.81508,3.1237702 -13.81733,4.0185002 -10.06983,8.9894872 3.77791,5.011282 21.00712,3.715512 28.58242,-2.149628 1.9765,-1.530276 4.31995,-2.501573 5.20767,-2.158417 0.88773,0.343156 2.72825,-0.31581 4.09003,-1.464357 2.35396,-1.9853779 2.51449,-1.9764985 3.25682,0.180176 3.62396,10.528526 -34.63685,18.401959 -46.67375,9.604666 -4.39478,-3.211952 -4.39478,-3.211952 -12.4916,-1.387765 -7.00556,1.578314 -8.9857,1.574874 -14.6921,-0.0256 -10.90685,-3.058987 -17.3299,-2.335189 -31.17237,3.512721 -13.40154,5.661627 -27.63166,3.289604 -27.35754,-4.560247 0.10912,-3.122811 0.97154,-3.329485 -13.99835,3.354245 -13.35248,5.961577 -21.50719,7.18017 -26.59466,3.97415 z M 414.24373,5.2813603 c 11.23946,-5.57432389 15.67139,-10.1814446 9.31679,-9.6851221 -6.3423,0.4953652 -13.95733,4.8059121 -18.14296,10.2699663 -3.54508,4.6278525 -1.3972,4.4855335 8.82617,-0.5848442 z M 363.88791,1.6711246 c 9.54236,-3.1952833 15.69172,-6.6200164 15.7672,-8.7811373 0.154,-4.4104723 -12.98042,-0.8662889 -19.8869,5.3662481 -6.90647,6.2325368 -6.15502,6.855413 4.1197,3.4148892 z m 52.00921,-7.9191517 c 3.14066,-1.2899662 7.57095,-2.2927955 9.84503,-2.2284878 2.43262,0.068674 3.83484,-0.4084405 3.40625,-1.159279 -3.14812,-5.5153681 -27.05371,4.6488922 -27.29665,11.606087 -0.0334,0.9591484 1.75287,0.056206 4.13805,-2.0925904 2.30832,-2.0791728 6.76662,-4.8357432 9.90732,-6.1257298 z m 80.1443,7.6766701 c 9.65428,-3.2578124 15.70283,-6.902624 13.68723,-8.247766 -3.6641,-2.4452582 -14.10679,0.5469542 -22.42992,6.42701015 -8.08219,5.70983695 -4.80485,6.39238315 8.74269,1.82075585 z"
       style="fill:#000000;fill-opacity:1" />
    <path
       inkscape:connector-curvature="0"
       id="path4597"
       d="M 74.054912,74.537703 C 32.472358,63.895953 18.151258,10.440213 46.880388,-26.895447 c 14.512114,-18.85958 53.429432,-35.194902 62.823382,-26.36974 11.85729,11.13936 15.96583,60.1023597 11.80309,69.20387 -1.37979,3.01681 -0.99901,5.11944 1.27799,12.20089 8.63739,26.86234 -19.6865,53.83087 -48.729938,46.39813 z M 99.56954,67.418773 C 132.69826,52.173443 124.46745,9.1087227 88.424949,9.1087227 c -19.862707,0 -28.859277,21.1274803 -15.175057,35.6369903 10.317097,10.93931 29.273578,4.06216 26.286808,-9.5365 -2.07449,-9.44516 -19.608418,-11.43909 -20.669458,-2.35049 -0.7029,6.02085 3.153761,9.40252 7.042497,6.17515 0.507435,-0.42113 1.07059,-0.70213 1.569128,-0.81561 0.498537,-0.11347 0.932457,-0.0594 1.181422,0.18954 0.655803,0.6558 -0.208067,1.76853 -1.648799,2.71731 -1.440732,0.94878 -3.458326,1.73361 -5.109971,1.73361 -3.039428,0 -5.269488,-2.57168 -6.144291,-5.73876 -0.874803,-3.16708 -0.394351,-6.92957 1.987244,-9.31116 4.924664,-4.92466 11.785956,-5.25651 17.185061,-2.64164 5.399107,2.61487 9.336027,8.17645 8.411937,15.03866 -1.22467,9.09436 -8.365156,13.66365 -16.358531,13.69071 -7.993375,0.0271 -16.839642,-4.48811 -21.475887,-13.56263 -6.934292,-13.57249 -0.655257,-25.68898 10.234602,-31.6447103 10.88986,-5.95573 19.516636,-2.65 31.739926,0.5634 6.34187,1.6672303 11.63645,1.5686203 11.09895,-11.16717 -0.5375,-12.7357997 -2.36343,-30.4737297 -7.3369,-40.8856197 -3.96055,-8.29136 -15.3083,-9.20247 -27.774922,-4.89777 -12.466621,4.3047 -26.052118,13.8252 -34.48817,26.39708 -31.581629,47.0647 4.31338,110.01498 50.589002,88.71966 z"
       style="fill:#ffffff;fill-opacity:1;stroke:none;stroke-opacity:1"
       sodipodi:nodetypes="sssssssssssssssssssssssssssss" />
    <path
       style="fill:url(#linearGradient4191);fill-opacity:1"
       d="m 237.65424,231.8994 c -11.91818,-7.01584 -6.85126,-31.43301 7.98065,-38.45807 13.5064,-6.39726 23.21252,8.09145 11.82787,17.65595 -4.22041,3.54564 -7.51782,4.08046 -9.83537,1.59522 -2.40051,-2.57426 -1.53895,-4.61729 2.07071,-4.9102 6.92984,-0.56234 9.62662,-13.1926 2.86725,-13.42865 -5.54422,-0.1936 -12.36551,11.08987 -12.76198,21.11026 -0.63383,16.01841 18.4908,20.04911 24.20607,5.10168 2.63528,-6.89215 8.09104,-11.77136 12.97174,-11.60094 8.89966,0.31079 8.16505,8.12228 -1.17395,12.48285 -5.26883,2.46015 -5.94075,4.21902 -2.50519,6.55761 5.22393,3.55592 14.28866,-4.2179 13.13366,-11.26324 -0.71415,-4.3564 1.75498,-8.63654 4.91854,-8.52606 1.78533,0.0623 2.42479,0.93719 2.34547,3.20881 -0.06,1.7177 0.41231,3.14131 1.04951,3.16356 0.63721,0.0223 2.31312,-1.32634 3.72425,-2.99685 4.3409,-5.13885 5.39039,-3.4558 2.5167,4.03597 -5.66153,14.75968 0.87902,17.08471 8.09148,2.87634 3.89773,-7.67853 13.60116,-12.1574 17.43403,-8.04715 0.89983,0.96491 2.18327,0.82093 4.33992,-0.4869 4.1766,-2.53283 4.42636,-1.80169 2.05286,6.0093 -2.56935,8.45543 -2.75645,12.3532 -0.5967,12.42862 2.66779,0.0932 5.43828,-3.69632 7.42872,-10.16104 2.05578,-6.67696 4.37695,-9.43888 7.83116,-9.31827 1.99818,0.0697 2.14984,0.61101 1.08742,3.88024 -1.23459,3.79914 -1.23459,3.79914 3.86036,-0.49056 2.80221,-2.35937 5.54306,-4.27409 6.09072,-4.25496 1.80013,0.0629 3.89083,3.09258 3.80625,5.51568 -0.0717,2.05517 0.53486,1.87257 4.46814,-1.34489 10.03927,-8.21222 12.58532,-2.92251 6.82503,14.17985 -0.45265,1.34392 -0.0605,2.18672 1.03577,2.22501 2.94568,0.10281 5.75571,-3.81837 7.81024,-10.89871 1.61024,-5.54931 2.56327,-6.90607 5.44894,-7.75728 4.67436,-1.37884 4.78752,-1.06209 2.41251,6.75379 -2.56197,8.43123 -2.69424,11.10461 -0.55304,11.17938 2.37037,0.0828 5.45672,-3.5437 6.62525,-7.78469 1.6112,-5.84761 9.02257,-11.92367 13.76525,-11.28519 5.27069,0.70958 7.51061,4.48944 4.06769,6.86423 -3.52499,2.43141 -4.52447,2.09573 -4.3997,-1.47765 0.13133,-3.76127 -2.93612,-4.30882 -4.92832,-0.87971 -1.87675,3.23043 -2.04349,11.67722 -0.26816,13.58109 4.65705,4.99408 9.60441,1.27715 20.76062,-15.59746 4.23256,-6.40207 8.01981,-2.84227 10.04001,9.43708 0.64953,3.94787 -3.781,9.50518 -9.22791,11.57484 -6.13139,2.32974 -10.77353,-1.70731 -6.52201,-5.67191 1.25158,-1.16712 1.97746,-0.91839 3.44974,1.18208 4.45551,6.35668 9.21891,-1.03905 5.2019,-8.07659 -2.58565,-4.52994 -2.58565,-4.52994 -4.97528,-0.89283 -8.61787,13.11678 -19.49174,18.11135 -25.47107,11.69931 -2.507,-2.68843 -2.53348,-2.69016 -5.3038,-0.34152 -5.79453,4.91249 -8.10078,5.28436 -10.70405,1.72594 -1.40246,-1.917 -2.72454,-2.72723 -3.22548,-1.97666 -5.94906,8.91437 -14.65807,3.6033 -11.57404,-7.05829 2.27404,-7.86127 1.41406,-9.65222 -2.66433,-5.54861 -2.01364,2.02611 -3.72735,5.52796 -4.35321,8.89559 -1.0137,5.45419 -3.46301,7.9772 -7.60375,7.83261 -1.56745,-0.0548 -1.5348,-1.1536 0.24959,-8.39708 2.86434,-11.62754 2.33984,-13.13797 -2.77287,-7.98488 -3.30396,3.33 -4.20304,5.27564 -4.34732,9.40777 -0.12571,3.59797 -0.80141,5.42274 -2.18443,5.89877 -3.6849,1.26837 -5.54663,0.58715 -5.4564,-1.9965 0.0859,-2.45874 -0.0835,-2.43944 -4.19978,0.47871 -5.41031,3.83557 -7.93573,3.75321 -9.89315,-0.32255 -1.54721,-3.22175 -1.54721,-3.22175 -4.62997,-0.16169 -4.748,4.71299 -12.63184,2.45925 -12.42196,-3.55109 0.0344,-0.98296 -1.74858,-0.0741 -4.19928,2.14069 -7.89908,7.13863 -14.55226,2.71298 -10.19111,-6.77907 2.30888,-5.02535 0.90411,-6.05535 -2.5915,-1.90017 -10.88252,12.93598 -18.76504,16.1897 -24.45059,10.09265 -2.44328,-2.62008 -2.44328,-2.62008 -7.93933,0.34814 -6.31745,3.41188 -14.57964,3.62321 -19.87107,0.50831 z m 81.23733,-3.66699 c 2.44996,-1.50068 5.78916,-8.56006 5.92787,-12.53204 0.27836,-7.97102 -7.69966,-3.45927 -9.70367,5.48762 -1.40236,6.26087 0.19366,9.23857 3.7758,7.04442 z m -41.79811,-13.4646 c 0.33227,-2.13567 -0.0852,-3.30068 -1.19668,-3.3395 -2.76766,-0.0967 -4.80079,2.57343 -4.93736,6.4841 -0.16903,4.84258 5.32994,2.02348 6.13404,-3.1446 z m -139.72194,5.15517 c 3.87869,0.0931 20.27836,0.18597 36.44375,0.20659 28.90803,0.0369 32.50958,0.29271 32.43939,2.30311 -0.049,1.40232 -13.24149,1.81608 -47.89663,1.50219 -8.87417,4.63798 -41.16134,-4.417 -20.98651,-4.01189 z m 322.23697,0.37831 c -1.34714,-2.36011 0.22927,-2.45661 38.98613,-2.38674 31.52293,0.0568 38.65666,0.37326 39.44632,1.74964 0.76844,1.33945 -2.13755,1.73454 -14.32659,1.94784 -33.57499,0.58756 -63.37006,-0.0217 -64.10586,-1.31074 z M 385.30021,202.9802 c 0.0946,-2.71155 3.66842,-5.29819 6.63844,-4.80489 4.94374,0.82113 2.36739,6.13109 -2.88576,5.94765 -2.08337,-0.0727 -3.77209,-0.587 -3.75268,-1.14276 z M 161.62253,179.09478 c -21.10772,-5.29989 -34.55484,-22.50016 -25.74452,-32.92997 2.76951,-3.2786 17.80417,-10.29776 21.76127,-10.15957 4.22938,0.14769 2.41919,2.22597 -4.71421,5.41247 -12.53464,5.59925 -11.82013,13.63385 1.88192,21.16219 25.65352,14.09487 71.21513,-6.07906 60.73748,-26.89357 -5.6871,-11.29775 -17.45228,-13.52157 -42.44871,-8.02354 -20.52754,4.5151 -29.31794,3.35099 -30.91252,-4.09377 -3.03511,-14.1706 42.58733,-32.772687 52.99745,-21.60916 3.17607,3.40589 2.21386,4.97932 -1.66639,2.72504 -11.38849,-6.616267 -38.82437,4.30553 -39.21921,15.61255 -0.18612,5.32765 0.72429,5.44151 15.11587,1.89075 15.69664,-3.87275 16.20884,-3.93601 29.52943,-3.64742 19.90494,0.43126 25.73188,5.00747 25.30515,19.87345 -0.64995,22.64311 -37.95222,46.87504 -62.62301,40.68055 z m 18.0733,-5.10887 c 5.91699,-1.35656 5.91699,-1.35656 -6.5506,-2.50344 -18.28595,-1.68211 -31.39212,-9.14647 -33.17943,-18.8967 -0.45646,-2.49019 -1.10816,-3.31118 -1.98174,-2.49654 -10.50309,9.79429 22.00072,28.41574 41.71177,23.89668 z m 39.16072,4.77597 c -4.06413,-3.08773 -3.46578,-15.35176 1.16535,-23.88548 9.84611,-18.1433 36.36287,-30.48066 31.84474,-14.81627 -1.95068,6.76304 -22.08195,23.47972 -28.02581,23.27215 -3.72132,-0.12998 -3.36047,8.04104 0.47473,10.74988 5.61167,3.96357 27.1782,-10.58978 29.9639,-20.22003 3.11037,-10.75258 15.25841,-19.30972 26.83874,-18.90532 7.5751,0.26453 13.3534,4.32224 10.26122,7.20574 -0.86122,0.80308 -1.62115,3.04535 -1.68883,4.98283 -0.0677,1.93748 -1.64918,6.93232 -3.51452,11.09962 -4.72334,10.55247 -3.59845,13.89361 3.96632,11.78025 3.63984,-1.01687 3.15309,2.42036 -0.604,4.26541 -2.48357,1.21964 -3.63114,1.12705 -6.58019,-0.53087 -3.39875,-1.91077 -3.8145,-1.84014 -8.57393,1.45654 -6.40606,4.43723 -9.67006,4.25037 -15.10098,-0.86453 -4.31757,-4.06632 -4.43703,-4.09812 -7.78842,-2.0724 -12.06578,7.29306 -27.52903,10.36431 -32.63832,6.48248 z m 53.11407,-7.99689 c 2.80403,-2.61479 2.9927,-3.36273 1.94964,-7.72905 -1.10425,-4.62234 -0.4018,-12.63122 1.67374,-19.08311 0.97045,-3.01676 0.97045,-3.01676 -3.1571,-0.73563 -6.79492,3.75528 -10.04089,9.51544 -6.95803,12.3474 2.42721,2.22971 2.42026,2.26335 -1.40208,6.75779 -7.02077,8.25528 0.0198,15.78528 7.89383,8.4426 z m -34.00483,-21.19552 c 11.4679,-10.52641 13.33626,-14.75317 4.72943,-10.69926 -5.23616,2.4663 -9.75288,6.68193 -14.94079,13.94491 -7.48066,10.47268 -3.27899,9.1372 10.21136,-3.24565 z m 46.46454,-5.09673 c 0.66504,-3.26255 0.45471,-3.93275 -1.06946,-3.40813 -2.88417,0.99273 -4.9385,6.12342 -5.0685,12.65847 -0.13059,6.56462 4.26442,-0.059 6.13796,-9.25034 z m 12.90705,33.25964 c -3.42685,-4.43542 2.60385,-53.63681 7.66496,-62.53442 4.46553,-7.85058 5.17175,-4.9963 3.57219,14.43786 -1.45153,17.63548 -1.42045,18.25135 0.82501,16.35749 7.64611,-6.44882 17.00456,-7.83298 21.36257,-3.15964 4.19551,4.49915 8.03366,1.30391 4.81305,-4.00685 -2.50555,-4.13167 -0.91841,-6.05198 2.81977,-3.4117 2.78266,1.96543 3.2139,1.92114 7.10151,-0.72933 4.34833,-2.96453 15.75274,-5.68609 16.72074,-3.99021 1.11021,1.94503 -1.20025,5.03123 -5.11381,6.83073 -7.02302,3.22931 -13.64052,10.05987 -13.83745,14.28301 -0.89799,19.25739 -16.19052,35.77934 -16.59408,17.92812 -0.17559,-7.76705 -0.42205,-7.8635 -6.36147,-2.48931 -9.35887,8.46821 -20.5756,13.58723 -22.97299,10.48425 z m 15.71259,-12.22292 c 12.97937,-12.37017 17.02743,-19.73028 10.96799,-19.94187 -9.64225,-0.33672 -16.84424,6.4119 -19.26114,18.04863 -2.26677,10.91392 -1.38338,11.1156 8.29315,1.89324 z m 39.09278,10.95835 c -18.23738,-11.49291 14.21272,-48.37684 32.97274,-37.47797 7.71361,4.48131 -9.83614,19.62007 -22.24657,19.19033 -9.41777,-0.32588 -15.40572,10.37712 -7.13942,12.7614 5.18997,1.49695 39.93476,-14.02862 40.07012,-17.90517 0.0232,-0.66462 0.5677,-1.19003 1.20996,-1.1676 0.64227,0.0224 4.25949,-2.82524 8.03824,-6.32818 13.04941,-12.09682 30.21784,-12.33255 29.80146,-0.40919 -0.2997,8.5829 -16.59546,19.50892 -27.05712,18.14137 -5.08064,-0.66415 -6.10562,0.27026 -6.29664,5.74023 -0.19483,5.58176 14.71411,1.26628 30.99651,-8.97205 2.84691,-1.79012 6.54515,-2.95226 9.10995,-2.8627 4.80463,0.16778 10.32282,-2.95975 14.23657,-8.06889 2.58404,-3.37328 2.58404,-3.37328 -4.62138,-3.10437 -5.57455,0.20802 -7.66351,-0.22229 -9.22931,-1.90143 -3.31544,-3.5554 -2.4449,-3.9207 8.39474,-3.52262 7.78383,0.28582 11.20686,-0.13401 13.77339,-1.6892 1.87839,-1.13826 4.52619,-2.03078 5.88396,-1.98337 1.35779,0.0473 2.83579,-0.46381 3.28441,-1.13606 1.12126,-1.68018 4.42744,-1.42548 4.36594,0.33633 -0.0945,2.70435 -9.3897,12.04966 -17.58123,17.67596 -8.97446,6.16401 -9.98194,8.13024 -5.19716,10.14322 8.09238,3.40451 14.43757,1.01693 18.1411,-6.82616 5.60588,-11.87176 15.1557,-17.15923 31.5696,-17.47918 24.77914,-0.48299 17.79294,12.06301 -10.56659,18.97584 -12.81509,3.12376 -13.81734,4.01849 -10.06984,8.98948 3.77792,5.01128 21.00712,3.71551 28.58242,-2.14962 1.9765,-1.53028 4.31996,-2.50158 5.20768,-2.15842 0.88772,0.34316 2.72824,-0.31581 4.09002,-1.46435 2.35397,-1.98539 2.51449,-1.97651 3.25682,0.18016 3.62396,10.52853 -34.63685,18.40196 -46.67375,9.60467 -4.39477,-3.21195 -4.39477,-3.21195 -12.49161,-1.38776 -7.00555,1.57831 -8.98569,1.57487 -14.69208,-0.0256 -10.90685,-3.05898 -17.3299,-2.33518 -31.17238,3.51273 -13.40154,5.66163 -27.63165,3.2896 -27.35754,-4.56025 0.10916,-3.1228 0.97154,-3.32949 -13.99834,3.35424 -13.3525,5.96159 -21.5072,7.18018 -26.59467,3.97415 z m 63.54107,-19.7661 c 11.23946,-5.57434 15.67139,-10.18146 9.31678,-9.68513 -6.34229,0.49536 -13.95732,4.80591 -18.14295,10.26997 -3.54508,4.62785 -1.3972,4.48552 8.82617,-0.58484 z M 365.328,153.09147 c 9.54236,-3.19528 15.69173,-6.62002 15.7672,-8.78115 0.15399,-4.41046 -12.98042,-0.86628 -19.8869,5.36626 -6.90646,6.23253 -6.15502,6.8554 4.1197,3.41489 z m 52.00922,-7.91916 c 3.14065,-1.28997 7.57094,-2.29279 9.84502,-2.22849 2.43262,0.0686 3.83484,-0.40844 3.40625,-1.15928 -3.14811,-5.51536 -27.0537,4.6489 -27.29665,11.60609 -0.0335,0.95915 1.75287,0.0562 4.13805,-2.09259 2.30833,-2.07917 6.76662,-4.83574 9.90733,-6.12573 z m 80.1443,7.67667 c 9.65427,-3.25781 15.70283,-6.90262 13.68722,-8.24776 -3.6641,-2.44526 -14.10679,0.54695 -22.42992,6.42701 -8.08219,5.70983 -4.80484,6.39238 8.7427,1.82075 z"
       id="path3383"
       inkscape:connector-curvature="0"
       sodipodi:nodetypes="csssssssssssssssssssssssssssssssssssssssssssssssssssssssssssssssssssssccsssssssscssccssssssssssssssssssssssssssssssssssssssssssssssssssssssssssssssssssssssssssssssssscsssssssssssssssssssssssssssssssssssssssccsccsscccssss" />
  </g>
</svg>
