<?xml version="1.0" encoding="UTF-8" standalone="no"?>
<!-- Created with Inkscape (http://www.inkscape.org/) -->

<svg
   xmlns:dc="http://purl.org/dc/elements/1.1/"
   xmlns:cc="http://creativecommons.org/ns#"
   xmlns:rdf="http://www.w3.org/1999/02/22-rdf-syntax-ns#"
   xmlns:svg="http://www.w3.org/2000/svg"
   xmlns="http://www.w3.org/2000/svg"
   xmlns:xlink="http://www.w3.org/1999/xlink"
   xmlns:sodipodi="http://sodipodi.sourceforge.net/DTD/sodipodi-0.dtd"
   xmlns:inkscape="http://www.inkscape.org/namespaces/inkscape"
   width="516.27844"
   height="143.38876"
   viewBox="0 0 516.27845 143.38876"
   id="svg3448"
   version="1.1"
   inkscape:version="0.91 r13725"
   sodipodi:docname="logo_inkscape.svg">
  <defs
     id="defs3450">
    <linearGradient
       inkscape:collect="always"
       id="linearGradient4402">
      <stop
         style="stop-color:#3e4ec9;stop-opacity:1"
         offset="0"
         id="stop4404" />
      <stop
         style="stop-color:#45b5f0;stop-opacity:1"
         offset="1"
         id="stop4406" />
    </linearGradient>
    <linearGradient
       inkscape:collect="always"
       xlink:href="#linearGradient4402"
       id="linearGradient4408"
       x1="33.444405"
       y1="168.0414"
       x2="549.56024"
       y2="168.0414"
       gradientUnits="userSpaceOnUse" />
  </defs>
  <sodipodi:namedview
     id="base"
     pagecolor="#ffffff"
     bordercolor="#666666"
     borderopacity="1.0"
     inkscape:pageopacity="0.0"
     inkscape:pageshadow="2"
     inkscape:zoom="1.979899"
     inkscape:cx="190.29017"
     inkscape:cy="9.7404984"
     inkscape:document-units="px"
     inkscape:current-layer="layer1"
     showgrid="false"
     inkscape:window-width="1276"
     inkscape:window-height="756"
     inkscape:window-x="0"
     inkscape:window-y="0"
     inkscape:window-maximized="1"
     units="px"
     fit-margin-top="0"
     fit-margin-left="0"
     fit-margin-right="0"
     fit-margin-bottom="0" />
  <metadata
     id="metadata3453">
    <rdf:RDF>
      <cc:Work
         rdf:about="">
        <dc:format>image/svg+xml</dc:format>
        <dc:type
           rdf:resource="http://purl.org/dc/dcmitype/StillImage" />
        <dc:title></dc:title>
      </cc:Work>
    </rdf:RDF>
  </metadata>
  <g
     inkscape:groupmode="layer"
     id="layer5"
     inkscape:label="Layer 5"
     transform="translate(-33.28181,-96.416712)">
    <path
       style="fill:#fff6e5;fill-opacity:1;stroke:none"
       d="m 83.908048,374.64585 c -19.335913,-3.01957 -34.37891,-20.53484 -38.053443,-44.30741 -0.661187,-4.27758 -0.791877,-13.61383 -0.245686,-17.5514 1.433285,-10.33277 4.805312,-19.84899 10.021371,-28.28137 6.286318,-10.16259 15.785293,-18.83252 27.325424,-24.94054 1.423684,-0.75354 2.588516,-1.32003 2.588516,-1.25886 0,0.0612 -0.628529,1.43349 -1.396735,3.04962 -3.647098,7.6727 -5.374393,16.05634 -4.709023,22.85583 0.328746,3.35947 1.126706,6.76998 2.285753,9.76937 1.631325,4.22156 5.421663,9.64458 9.160123,13.10582 l 1.762292,1.63161 -1.088959,0.2803 c -6.065284,1.56121 -10.805054,4.26111 -14.749076,8.40147 -3.577852,3.75596 -5.577691,7.88606 -6.142508,12.68561 -0.842036,7.15526 2.277447,15.18171 8.009449,20.60835 6.042051,5.72017 13.930375,7.94218 21.406984,6.02998 2.58028,-0.65992 4.69824,-1.83333 6.67084,-3.69585 2.94806,-2.78353 4.4886,-6.18906 4.7235,-10.44184 0.23982,-4.34181 -1.11056,-7.93883 -4.09501,-10.90795 -3.0376,-3.022 -6.35933,-4.49196 -10.601284,-4.69136 -4.382133,-0.206 -7.775505,1.04456 -10.742275,3.95884 -1.526217,1.49921 -1.767414,1.87441 -2.271205,3.53304 -1.051374,3.46142 -0.283744,7.38922 1.924018,9.84478 1.436429,1.59766 2.835912,2.17185 4.842363,1.98679 2.851671,-0.26302 6.489351,-2.53749 6.324656,-3.95452 -0.06256,-0.53825 -0.225423,-0.66782 -0.923451,-0.73464 -0.640156,-0.0613 -1.190667,0.14673 -2.250196,0.85021 -2.306256,1.53127 -3.931483,1.41421 -5.451881,-0.39268 -0.850263,-1.01048 -1.223876,-2.45257 -1.2151,-4.6901 0.0171,-4.35944 2.860535,-6.72438 8.123174,-6.75618 6.080891,-0.0367 11.151201,3.31852 12.283331,8.12846 0.93308,3.96427 -0.14625,7.6577 -3.08449,10.55503 -4.661195,4.59627 -12.138774,5.42271 -18.61516,2.05738 -4.034791,-2.09659 -7.943195,-6.97312 -9.735335,-12.14679 -0.791853,-2.28599 -0.903844,-2.92922 -0.997899,-5.73169 -0.08716,-2.59686 -0.01147,-3.55317 0.426709,-5.39207 1.798874,-7.54919 7.929591,-13.25457 16.038164,-14.92548 2.539912,-0.52339 8.164949,-0.53663 11.333991,-0.0267 13.1245,2.11194 22.77255,10.91998 25.03699,22.85714 0.55582,2.93004 0.51747,8.10781 -0.0815,10.99788 -2.43261,11.73844 -11.73615,21.19262 -25.31426,25.72413 -4.623263,1.54295 -7.107177,1.95758 -12.341353,2.06008 -2.569576,0.0503 -5.351417,-0.0146 -6.181869,-0.14431 z"
       id="path4393"
       inkscape:connector-curvature="0" />
    <path
       inkscape:connector-curvature="0"
       id="path4505"
       d="m 81.050905,228.21728 c -19.335913,-3.01957 -34.37891,-20.53484 -38.053443,-44.30741 -0.661187,-4.27758 -0.791877,-13.61383 -0.245686,-17.5514 1.433285,-10.33277 4.805312,-19.84899 10.021371,-28.28137 6.286318,-10.16259 15.785293,-18.83252 27.325424,-24.94054 1.423684,-0.75354 2.588516,-1.32003 2.588516,-1.25886 0,0.0612 -0.628529,1.43349 -1.396735,3.04962 -3.647098,7.6727 -5.374393,16.05634 -4.709023,22.85583 0.328746,3.35947 1.126706,6.76998 2.285753,9.76937 1.631325,4.22156 5.421663,9.64458 9.160123,13.10582 l 1.762292,1.63161 -1.088959,0.2803 c -6.065284,1.56121 -10.805054,4.26111 -14.749076,8.40147 -3.577852,3.75596 -5.577691,7.88606 -6.142508,12.68561 -0.842036,7.15526 2.277447,15.18171 8.009449,20.60835 6.042051,5.72017 13.930375,7.94218 21.406984,6.02998 2.58028,-0.65992 4.698243,-1.83333 6.670843,-3.69585 2.94806,-2.78353 4.4886,-6.18906 4.7235,-10.44184 0.23982,-4.34181 -1.11056,-7.93883 -4.09501,-10.90795 -3.0376,-3.022 -6.359333,-4.49196 -10.601287,-4.69136 -4.382133,-0.206 -7.775505,1.04456 -10.742275,3.95884 -1.526217,1.49921 -1.767414,1.87441 -2.271205,3.53304 -1.051374,3.46142 -0.283744,7.38922 1.924018,9.84478 1.436429,1.59766 2.835912,2.17185 4.842363,1.98679 2.851671,-0.26302 6.489351,-2.53749 6.324656,-3.95452 -0.06256,-0.53825 -0.225423,-0.66782 -0.923451,-0.73464 -0.640156,-0.0613 -1.190667,0.14673 -2.250196,0.85021 -2.306256,1.53127 -3.931483,1.41421 -5.451881,-0.39268 -0.850263,-1.01048 -1.223876,-2.45257 -1.2151,-4.6901 0.0171,-4.35944 2.860535,-6.72438 8.123174,-6.75618 6.080891,-0.0367 11.151204,3.31852 12.283334,8.12846 0.93308,3.96427 -0.14625,7.6577 -3.08449,10.55503 -4.661198,4.59627 -12.138777,5.42271 -18.615163,2.05738 -4.034791,-2.09659 -7.943195,-6.97312 -9.735335,-12.14679 -0.791853,-2.28599 -0.903844,-2.92922 -0.997899,-5.73169 -0.08716,-2.59686 -0.01147,-3.55317 0.426709,-5.39207 1.798874,-7.54919 7.929591,-13.25457 16.038164,-14.92548 2.539912,-0.52339 8.164949,-0.53663 11.333991,-0.0267 13.124503,2.11194 22.772553,10.91998 25.036993,22.85714 0.55582,2.93004 0.51747,8.10781 -0.0815,10.99788 -2.43261,11.73844 -11.73615,21.19262 -25.314263,25.72413 -4.623263,1.54295 -7.107177,1.95758 -12.341353,2.06008 -2.569576,0.0503 -5.351417,-0.0146 -6.181869,-0.14431 z"
       style="fill:#fff6e5;fill-opacity:1;stroke:none" />
  </g>
  <g
     inkscape:groupmode="layer"
     id="layer4"
     inkscape:label="Layer 4"
     transform="translate(-33.28181,-96.416712)">
    <path
       style="fill:#c8c4b7;fill-opacity:1;fill-rule:evenodd;stroke:none;stroke-width:1px;stroke-linecap:butt;stroke-linejoin:miter;stroke-opacity:1"
       d="m 47.592287,293.89587 c 0,0 -1.515229,13.13198 7.071068,17.17259 8.586297,4.04061 21.213204,1.76777 25.253814,5.05076 4.04061,3.283 1.010152,5.80838 3.535534,8.33376 2.525381,2.52538 7.323606,4.79823 10.354063,4.79823 3.030458,0 6.313454,-1.26269 8.838834,0.50507 2.52538,1.76777 7.57614,6.31346 7.57614,9.59645 0,3.283 -4.0406,10.85914 0.25254,18.43529 4.29315,7.57614 7.07107,6.06091 9.09138,5.05076 2.0203,-1.01015 5.3033,-3.03046 5.3033,-3.03046 l 5.55584,-12.87944 0,-9.09138 -4.04062,-13.38452 -7.82868,-7.82868 -12.87944,-6.06091 -8.586298,-0.25254 -5.303301,-6.06092 -7.323606,-13.63706 -1.515229,-11.61675 3.030458,-12.37437 4.293148,-8.33376 -3.030457,-3.28299 -13.889598,7.07106 -11.616754,9.84899 -10.101526,13.63706 z"
       id="path4395"
       inkscape:connector-curvature="0" />
    <path
       inkscape:connector-curvature="0"
       id="path4507"
       d="m 44.735144,147.4673 c 0,0 -1.515229,13.13198 7.071068,17.17259 8.586297,4.04061 21.213204,1.76777 25.253814,5.05076 4.04061,3.283 1.010152,5.80838 3.535534,8.33376 2.525381,2.52538 7.323606,4.79823 10.354063,4.79823 3.030458,0 6.313454,-1.26269 8.838834,0.50507 2.525383,1.76777 7.576143,6.31346 7.576143,9.59645 0,3.283 -4.0406,10.85914 0.25254,18.43529 4.29315,7.57614 7.07107,6.06091 9.09138,5.05076 2.0203,-1.01015 5.3033,-3.03046 5.3033,-3.03046 l 5.55584,-12.87944 0,-9.09138 -4.04062,-13.38452 -7.82868,-7.82868 -12.87944,-6.06091 -8.586301,-0.25254 -5.303301,-6.06092 -7.323606,-13.63706 -1.515229,-11.61675 3.030458,-12.37437 4.293148,-8.33376 -3.030457,-3.28299 -13.889598,7.07106 -11.616754,9.84899 -10.101526,13.63706 z"
       style="fill:#c8c4b7;fill-opacity:1;fill-rule:evenodd;stroke:none;stroke-width:1px;stroke-linecap:butt;stroke-linejoin:miter;stroke-opacity:1" />
    <path
       style="fill:#fff6ed;fill-rule:evenodd;stroke:none;stroke-width:1px;stroke-linecap:butt;stroke-linejoin:miter;stroke-opacity:1;fill-opacity:1"
       d="m 42.924667,185.69833 c 0,0 3.928572,-2.14286 9.821429,0.71429 5.892857,2.85714 15.178571,8.75 19.821428,13.92857 4.642858,5.17857 5.357143,12.14285 9.821429,15.53571 4.464286,3.39286 13.571429,5 17.321429,7.32143 3.749998,2.32143 1.964288,4.10714 0.535718,4.64286 -1.428576,0.53571 -9.107147,1.42857 -9.107147,1.42857 l -9.464286,0 -8.928571,-1.96429 -5.892857,-3.39285 -6.607143,-4.46429 -8.571429,-9.82143 -4.642857,-9.10714 -2.678571,-6.60714 z"
       id="path4517"
       inkscape:connector-curvature="0" />
  </g>
  <g
     inkscape:groupmode="layer"
     id="layer3"
     inkscape:label="Layer 3"
     transform="translate(-33.28181,-96.416712)">
    <path
       style="fill:#aaeeff"
       d="m 123.24718,318.33696 c -0.30611,-0.12196 -1.52176,-1.05124 -2.70144,-2.06508 -4.13075,-3.55006 -8.83719,-6.01671 -13.64424,-7.15097 -7.686015,-1.81357 -8.679588,-1.91487 -11.026542,-1.12424 l -1.522632,0.51294 -1.668099,-1.45995 c -5.966386,-5.22191 -10.019551,-12.04208 -11.598441,-19.51644 -0.55191,-2.6127 -0.619394,-9.25516 -0.123151,-12.12183 0.903421,-5.21882 3.013349,-11.32465 5.421078,-15.68782 l 1.307091,-2.36865 2.020305,-0.80497 c 4.912059,-1.95715 9.07424,-2.85593 14.047371,-3.03336 4.62525,-0.16503 6.7964,0.19114 9.76206,1.60143 3.72888,1.77323 5.68115,4.65879 8.2538,12.19954 5.45422,15.98702 7.71593,41.89225 4.28978,49.13453 -0.8647,1.82784 -1.64669,2.35108 -2.81694,1.88487 z"
       id="path3569"
       inkscape:connector-curvature="0" />
    <path
       inkscape:connector-curvature="0"
       id="path4509"
       d="m 120.39004,171.90839 c -0.30611,-0.12196 -1.52176,-1.05124 -2.70144,-2.06508 -4.13075,-3.55006 -8.83719,-6.01671 -13.64424,-7.15097 -7.686018,-1.81357 -8.046438,-0.76896 -10.521469,-0.6823 l -1.301661,0.1657 -2.394146,-1.55465 c -6.649822,-4.3181 -10.019551,-12.04208 -11.598441,-19.51644 -0.55191,-2.6127 -0.619394,-9.25516 -0.123151,-12.12183 0.903421,-5.21882 3.013349,-11.32465 5.421078,-15.68782 l 1.307091,-2.36865 2.020305,-0.80497 c 4.912059,-1.95715 9.07424,-2.85593 14.047374,-3.03336 4.62525,-0.16503 6.7964,0.19114 9.76206,1.60143 3.72888,1.77323 5.68115,4.65879 8.2538,12.19954 5.45422,15.98702 7.71593,41.89225 4.28978,49.13453 -0.8647,1.82784 -1.64669,2.35108 -2.81694,1.88487 z"
       style="fill:#7780a0;fill-opacity:1"
       sodipodi:nodetypes="cssscsssscsssssc" />
  </g>
  <g
     inkscape:groupmode="layer"
     id="layer2"
     inkscape:label="Layer 2"
     transform="translate(-33.28181,-96.416712)">
    <path
       style="fill:#c6eeff;fill-opacity:1;fill-rule:evenodd;stroke:none;stroke-width:1px;stroke-linecap:butt;stroke-linejoin:miter;stroke-opacity:1"
       d="m 94.059304,309.30069 c 0,0 12.121836,-3.03045 10.354066,-22.47589 -1.76777,-19.44544 -5.555841,-22.72843 -0.50508,-29.04188 5.05076,-6.31346 8.08122,-8.08122 8.08122,-8.08122 l 6.06092,5.3033 8.08122,14.89975 3.03045,20.70812 1.01016,16.92006 -1.51523,8.83883 -3.283,5.80838 -9.09137,-7.07107 -11.11168,-3.78807 z"
       id="path3571"
       inkscape:connector-curvature="0" />
    <path
       inkscape:connector-curvature="0"
       id="path4511"
       d="m 91.202161,162.87212 c 0,0 11.574439,-4.92512 13.889599,-19.69797 1.90134,-12.13228 -0.19966,-26.10928 -5.05076,-32.57741 l -3.788075,-5.05077 18.940365,3.03046 8.08122,14.89975 3.03045,20.70812 1.01016,16.92006 -1.51523,8.83883 -3.72943,5.27267 -9.22212,-6.92128 -10.5345,-3.40215 z"
       style="fill:#96b9e4;fill-opacity:1;fill-rule:evenodd;stroke:none;stroke-width:1px;stroke-linecap:butt;stroke-linejoin:miter;stroke-opacity:1"
       sodipodi:nodetypes="csscccccccccc" />
  </g>
  <g
     inkscape:label="Layer 1"
     inkscape:groupmode="layer"
     id="layer1"
     transform="translate(-33.28181,-96.416712)">
    <path
       style="fill:url(#linearGradient4408);fill-opacity:1"
       d="m 241.48893,237.90543 c -12.15576,-6.59563 -7.94406,-31.17475 6.63362,-38.71316 13.27492,-6.86473 23.48078,7.27642 12.43686,17.2324 -4.09409,3.69078 -7.37084,4.34035 -9.77369,1.9375 -2.4889,-2.4889 -1.69915,-4.56076 1.89808,-4.97947 6.90599,-0.80384 9.16034,-13.52053 2.39685,-13.52053 -5.54759,0 -11.97095,11.51466 -12.01748,21.54278 -0.0744,16.03077 19.17923,19.39158 24.36938,4.25379 2.39313,-6.97992 7.6753,-12.04657 12.55898,-12.04657 8.90509,0 8.44351,7.83236 -0.73761,12.51622 -5.17975,2.64252 -5.78989,4.42377 -2.27478,6.64104 5.34482,3.37143 14.13273,-4.714 12.73258,-11.71475 -0.86576,-4.32882 1.45249,-8.69251 4.61797,-8.69251 1.78643,0 2.45603,0.85199 2.45603,3.125 0,1.71875 0.52168,3.125 1.15928,3.125 0.63759,0 2.26542,-1.40625 3.61739,-3.125 4.15892,-5.2872 5.26649,-3.64182 2.65601,3.94569 -5.14297,14.94827 1.47476,17.04362 8.18693,2.5922 3.6274,-7.80988 13.1686,-12.62467 17.14259,-8.65069 0.93293,0.93292 2.2106,0.74423 4.32026,-0.63807 4.08567,-2.67704 4.3608,-1.95507 2.26134,5.934 -2.27268,8.53995 -2.32365,12.44187 -0.16254,12.44187 2.66941,0 5.30596,-3.88387 7.06958,-10.41411 1.8215,-6.74463 4.04486,-9.58589 7.50118,-9.58589 1.99938,0 2.16985,0.5356 1.22219,3.83993 -1.10127,3.83991 -1.10127,3.83991 3.84087,-0.625 2.71816,-2.45572 5.39051,-4.46493 5.93852,-4.46493 1.80121,0 3.9964,2.95491 3.9964,5.37949 0,2.05642 0.59991,1.85276 4.4185,-1.5 9.74656,-8.5576 12.47566,-3.35996 7.31574,13.93301 -0.40546,1.3589 0.016,2.1875 1.11279,2.1875 2.94748,0 5.61895,-4.0169 7.42512,-11.16464 1.41561,-5.60212 2.32071,-6.99131 5.1749,-7.94271 4.6234,-1.54113 4.74752,-1.22853 2.64675,6.66548 -2.26618,8.5155 -2.30504,11.19187 -0.16254,11.19187 2.37183,0 5.32973,-3.73197 6.34954,-8.01117 1.40614,-5.90028 8.60094,-12.23129 13.36301,-11.75871 5.29225,0.5252 7.66271,4.22458 4.30478,6.71809 -3.43798,2.55295 -4.44859,2.25235 -4.44859,-1.32321 0,-3.76356 -3.08472,-4.20372 -4.95602,-0.70717 -1.76287,3.29395 -1.63473,11.74142 0.20602,13.58217 4.82851,4.82851 9.64313,0.94118 20.20364,-16.3125 4.00655,-6.54588 7.9157,-3.12043 10.36324,9.08094 0.78688,3.92281 -3.44695,9.63135 -8.81833,11.88985 -6.04638,2.5423 -10.82656,-1.33028 -6.71599,-5.44085 1.21009,-1.21009 1.9442,-0.98684 3.48888,1.06097 4.67464,6.19732 9.17702,-1.36016 4.91687,-8.25322 -2.74217,-4.43694 -2.74217,-4.43694 -5.00341,-0.71864 -8.15483,13.40954 -18.84779,18.78056 -25.04725,12.5811 -2.5993,-2.5993 -2.62582,-2.60009 -5.3125,-0.1562 -5.61955,5.11171 -7.91143,5.56384 -10.6373,2.09845 -1.4685,-1.86689 -2.81806,-2.63049 -3.29246,-1.86289 -5.63434,9.11655 -14.52341,4.11265 -11.81333,-6.65006 1.99828,-7.93585 1.07633,-9.69569 -2.85634,-5.45225 -1.94172,2.09515 -3.53217,5.65468 -4.04015,9.0421 -0.82271,5.48624 -3.18247,8.0932 -7.32576,8.0932 -1.5684,0 -1.5741,-1.09933 -0.0436,-8.40067 2.4568,-11.72043 1.8799,-13.21162 -3.04987,-7.88325 -3.18571,3.44328 -4.01633,5.41912 -4.01633,9.55376 0,3.60017 -0.61165,5.4474 -1.97724,5.97142 -3.63838,1.39619 -5.52275,0.78036 -5.52275,-1.80487 0,-2.46024 -0.16859,-2.43503 -4.18049,0.625 -5.27317,4.02205 -7.79993,4.02787 -9.89839,0.0229 -1.65872,-3.16578 -1.65872,-3.16578 -4.63281,0 -4.58064,4.87583 -12.53831,2.8986 -12.53831,-3.1154 0,-0.98356 -1.75009,-0.013 -4.12201,2.28593 -7.64514,7.40996 -14.44871,3.2192 -10.4215,-6.41928 2.1321,-5.10285 0.69224,-6.08321 -2.65623,-1.80856 -10.42443,13.30789 -18.18859,16.83473 -24.08348,10.93982 -2.53323,-2.53322 -2.53323,-2.53322 -7.92233,0.625 -6.19456,3.63027 -14.44432,4.12983 -19.84124,1.20149 z m 81.05988,-6.4999 c 2.3961,-1.58526 5.48691,-8.75688 5.48691,-12.73128 0,-7.97588 -7.8157,-3.18845 -9.50625,5.82293 -1.18301,6.306 0.51597,9.22618 4.01934,6.90835 z m -42.24256,-11.99765 c 0.25754,-2.14597 -0.20033,-3.29571 -1.3125,-3.29571 -2.76933,0 -4.70803,2.7394 -4.70803,6.65246 0,4.84552 5.3973,1.83624 6.02053,-3.35675 z m -147.44929,10.3772 c 3.87957,-0.0424 20.27251,-0.52183 36.42876,-1.0654 28.89169,-0.97203 32.5,-0.84218 32.5,1.16958 0,1.40319 -13.17004,2.2771 -47.81501,3.17284 -8.70691,4.94487 -41.29042,-2.97779 -21.11375,-3.27702 z m 338.21313,-7.56955 c -1.42868,-2.31165 0.14339,-2.46311 38.87909,-3.74588 31.5057,-1.04334 38.64611,-0.97608 39.48333,0.37192 0.81474,1.31181 -2.0757,1.80809 -14.24988,2.44665 -33.53402,1.75893 -63.3322,2.18993 -64.11254,0.92731 z m -83.03437,-18.36445 c 0,-2.7132 3.48126,-5.42299 6.4667,-5.03364 4.96939,0.64809 2.57992,6.04473 -2.67643,6.04473 -2.08464,0 -3.79027,-0.45499 -3.79027,-1.01109 z m -224.375,-16.06463 c -21.27984,-4.56 -35.31905,-21.2805 -26.87809,-32.01144 2.6534,-3.37325 17.43394,-10.91284 21.39343,-10.91284 4.23195,0 2.49542,2.1402 -4.52242,5.57371 -12.33159,6.03328 -11.33712,14.03805 2.6193,21.08361 26.12982,13.191 70.95962,-8.56072 59.76192,-28.99688 -6.07792,-11.0924 -17.91355,-12.90427 -42.70286,-6.53722 -20.35748,5.22875 -29.18314,4.37213 -31.03655,-3.01244 -3.52784,-14.05606 41.41761,-34.238997 52.21102,-23.44558 3.29298,3.29297 2.38628,4.89902 -1.5703,2.78152 -11.61244,-6.21479 -38.65045,5.65786 -38.65045,16.97178 0,5.33089 0.91377,5.41292 15.17266,1.36206 15.55192,-4.41819 16.0616,-4.49929 29.38416,-4.67575 19.90784,-0.26368 25.89096,4.10639 25.9833,18.97819 0.14067,22.652 -36.29321,48.17101 -61.16512,42.84128 z m 17.88397,-5.73651 c 5.86603,-1.56223 5.86603,-1.56223 -6.63397,-2.2733 -18.3335,-1.0429 -31.69219,-8.04533 -33.8187,-17.72724 -0.5431,-2.47274 -1.22305,-3.27048 -2.06767,-2.42586 -10.15489,10.15489 22.97901,27.63062 42.52034,22.4264 z m 39.30353,3.40638 c -4.1694,-2.94402 -3.99941,-15.22146 0.33106,-23.9116 9.20692,-18.47587 35.27695,-31.73113 31.30826,-15.91862 -1.71347,6.82701 -21.24907,24.23607 -27.19655,24.23607 -3.7236,0 -3.07781,8.15342 0.8496,10.72676 5.74659,3.76531 26.79205,-11.53184 29.23998,-21.25344 2.73321,-10.85457 14.57522,-19.83046 26.1626,-19.83046 7.57971,0 13.49611,3.85358 10.50644,6.84325 -0.83264,0.83264 -1.51389,3.10007 -1.51389,5.03873 0,1.93866 -1.40625,6.98564 -3.125,11.21551 -4.35222,10.71089 -3.11138,14.01073 4.375,11.63465 3.60214,-1.14328 3.23566,2.30884 -0.45477,4.2839 -2.43948,1.30556 -3.58958,1.25308 -6.59468,-0.30091 -3.46339,-1.79099 -3.87641,-1.70589 -8.51789,1.75488 -6.24729,4.65809 -9.51582,4.58525 -15.12195,-0.33699 -4.45685,-3.91317 -4.57735,-3.94077 -7.856,-1.79933 -11.80392,7.70972 -27.15055,11.31874 -32.39221,7.6176 z m 52.80265,-9.84567 c 2.71106,-2.71105 2.87351,-3.46513 1.6787,-7.79238 -1.26488,-4.581 -0.84237,-12.6095 1.00673,-19.1299 0.86458,-3.0488 0.86458,-3.0488 -3.18085,-0.625 -6.65971,3.99012 -9.70268,9.86007 -6.52287,12.58271 2.50357,2.14363 2.49777,2.17751 -1.16538,6.8026 -6.72838,8.49527 0.57068,15.77497 8.18367,8.16197 z m -34.72382,-19.99586 c 11.09353,-10.92023 12.81324,-15.20961 4.35315,-10.8578 -5.14692,2.64754 -9.51374,7.01823 -14.44505,14.45785 -7.11059,10.72737 -2.95808,9.24606 10.0919,-3.60005 z m 46.25834,-6.71521 c 0.55077,-3.28377 0.31719,-3.94623 -1.18773,-3.36874 -2.84778,1.09279 -4.7218,6.29204 -4.62364,12.82765 0.0986,6.56518 4.25976,-0.20774 5.81137,-9.45891 z m 14.05994,32.78893 c -3.57956,-4.31312 0.73036,-53.69502 5.47788,-62.76384 4.18883,-8.00164 4.99422,-5.17374 4.07387,14.30441 -0.83516,17.67538 -0.78262,18.2898 1.39538,16.31873 7.4164,-6.71174 16.72086,-8.42167 21.23927,-3.90326 4.34998,4.34998 8.07428,1.02274 4.6703,-4.17238 -2.64822,-4.04171 -1.12906,-6.01625 2.69898,-3.50803 2.84957,1.86711 3.279,1.8078 7.07175,-0.97672 4.24221,-3.11449 15.5447,-6.23239 16.57128,-4.57134 1.17742,1.90511 -1.02393,5.07006 -4.8723,7.00505 -6.90604,3.47243 -13.28112,10.52979 -13.33055,14.75723 -0.22536,19.277 -14.93198,36.32257 -15.95829,18.49631 -0.44655,-7.75619 -0.69623,-7.84397 -6.44448,-2.26578 -9.05761,8.78967 -20.08886,14.29703 -22.59309,11.27962 z m 15.27644,-12.76384 c 12.53976,-12.81561 16.32847,-20.3125 10.26536,-20.3125 -9.64815,0 -16.61021,6.99584 -18.61952,18.70984 -1.8845,10.98639 -0.99463,11.1571 8.35416,1.60266 z m 39.45142,9.58736 c -18.62737,-10.84944 12.51574,-48.84339 31.6447,-38.60588 7.8653,4.20938 -9.14542,19.95139 -21.56329,19.95503 -9.42342,0.003 -15.03419,10.90846 -6.6897,13.0028 5.23903,1.31491 39.42082,-15.41379 39.42082,-19.2927 0,-0.66501 0.52581,-1.20911 1.16847,-1.20911 0.64267,0 4.15829,-2.97218 7.8125,-6.60485 12.61927,-12.54487 29.76903,-13.37962 29.76903,-1.449 0,8.58814 -15.9045,20.07621 -26.40752,19.07459 -5.10073,-0.48643 -6.09248,0.48318 -6.09248,5.95649 0,5.58515 14.74934,0.75199 30.66452,-10.04835 2.78269,-1.88839 6.43813,-3.17888 9.00446,-3.17888 4.80758,0 10.21326,-3.31822 13.94632,-8.56083 2.46474,-3.4614 2.46474,-3.4614 -4.72691,-2.9412 -5.56389,0.40245 -7.6666,0.0453 -9.29003,-1.57817 -3.43751,-3.43752 -2.58025,-3.83298 8.26669,-3.81345 7.78906,0.014 11.19535,-0.525 13.70601,-2.16885 1.83754,-1.20312 4.45258,-2.1875 5.81119,-2.1875 1.35861,0 2.81785,-0.5625 3.24275,-1.25 1.06195,-1.71828 4.375,-1.57912 4.375,0.18376 0,2.706 -8.96344,12.37002 -16.95364,18.27877 -8.75387,6.47346 -9.69208,8.47365 -4.83998,10.31841 8.20626,3.12002 14.46426,0.51245 17.89182,-7.45511 5.18815,-12.06018 14.54761,-17.6777 30.94036,-18.57029 24.74718,-1.34749 18.20309,11.43469 -9.89793,19.33304 -12.69825,3.5691 -13.66868,4.49827 -9.74995,9.33544 3.95048,4.87638 21.12397,2.98011 28.48998,-3.14583 1.92189,-1.59833 4.23002,-2.65081 5.12917,-2.33885 0.89916,0.31197 2.71556,-0.41083 4.03643,-1.60621 2.28325,-2.06631 2.44398,-2.06304 3.26113,0.0664 3.98919,10.39565 -33.97353,19.59957 -46.31013,11.22772 -4.50418,-3.05662 -4.50418,-3.05662 -12.53241,-0.95098 -6.94621,1.82185 -8.92527,1.88752 -14.68404,0.4872 -11.00697,-2.67648 -17.40085,-1.72896 -31.03081,4.59848 -13.19579,6.12589 -27.5,4.25194 -27.5,-3.60269 0,-3.12473 0.85475,-3.36137 -13.87277,3.84073 -13.13629,6.42394 -21.24352,7.92638 -26.43976,4.89987 z m 62.81253,-21.97163 c 11.03806,-5.96317 15.3065,-10.72216 8.97311,-10.00437 -6.32115,0.71641 -13.7811,5.29009 -17.77349,10.89689 -3.38141,4.74876 -1.23981,4.53156 8.80038,-0.89252 z m -50.45114,-1.85064 c 9.42503,-3.52635 15.45114,-7.16362 15.45114,-9.32606 0,-4.41316 -13.00275,-0.41275 -19.6875,6.05703 -6.68474,6.46977 -5.91203,7.06604 4.23636,3.26903 z m 51.70114,-9.72942 c 3.09375,-1.39879 7.48632,-2.55562 9.76127,-2.57072 2.43354,-0.0162 3.81826,-0.54202 3.36373,-1.27745 -3.3387,-5.40214 -26.875,5.59022 -26.875,12.55166 0,0.95973 1.75376,-0.005 4.0625,-2.23573 2.23437,-2.15847 6.59375,-5.06896 9.6875,-6.46775 z m 80.36341,4.875 c 9.53469,-3.59277 15.45237,-7.44645 13.39104,-8.72042 -3.74721,-2.3159 -14.07911,1.03894 -22.19195,7.20588 -7.878,5.98843 -4.57884,6.55618 8.80091,1.51454 z"
       id="path3521"
       inkscape:connector-curvature="0"
       sodipodi:nodetypes="csssssssssssssssssssssssssssssssssssssssssssssssssssssssssssssssssssssccsssssssscssccssssssssssssssssssssssssssssssssssssssssssssssssssssssssssssssssssssssssssssssssscssssssssssssssssssssssssssssssssssssssssssccsscccssss" />
    <path
       style="fill:none;fill-rule:evenodd;stroke:#000000;stroke-width:1px;stroke-linecap:butt;stroke-linejoin:miter;stroke-opacity:1"
       d="m 94.642857,309.50506 c -29.174951,-23.01559 -6.053481,-54.70414 -6.053481,-54.70414 0,0 12.124914,-6.36729 20.339194,-4.22443 8.21429,2.14285 17.85714,10 20.71429,36.42857 2.85714,26.42857 2.14285,18.57143 -0.71429,26.07143 -2.85714,7.5 -1.78571,11.78571 -16.07143,1.42857 -14.285712,-10.35714 -18.214283,-5 -18.214283,-5 z"
       id="path3543"
       inkscape:connector-curvature="0"
       sodipodi:nodetypes="ccssssc" />
    <path
       inkscape:connector-curvature="0"
       id="path4447"
       d="M 81.912055,378.10913 C 40.329501,367.46738 26.008401,314.01164 54.737531,276.67598 c 14.512114,-18.85958 53.429429,-35.1949 62.823379,-26.36974 11.85729,11.13936 18.74375,51.51606 11.80309,69.20387 -1.21178,3.08813 -0.99901,5.11944 1.27799,12.20089 8.63739,26.86234 -19.6865,53.83087 -48.729935,46.39813 z m 25.514625,-7.11893 c 33.12872,-15.24533 24.89791,-58.31005 -11.144588,-58.31005 -19.862707,0 -28.859277,21.12748 -15.175057,35.63699 10.317097,10.93931 29.273575,4.06216 26.286805,-9.5365 -2.07449,-9.44516 -19.608415,-11.43909 -20.669455,-2.35049 -0.7029,6.02085 3.153757,9.40252 7.042497,6.17515 1.01487,-0.84227 2.25262,-1.124 2.75055,-0.62607 1.31161,1.3116 -3.45548,4.45092 -6.75877,4.45092 -6.078857,0 -8.920237,-10.28673 -4.157047,-15.04992 9.849327,-9.84933 27.445165,-1.32739 25.596995,12.39702 -2.44934,18.18873 -28.561925,18.27713 -37.834415,0.12808 -13.868594,-27.14498 25.116137,-48.46596 48.134155,-26.32487 9.45181,9.09171 7.54936,-35.98545 -2.39758,-56.80923 -7.92111,-16.58272 -45.390985,-3.64444 -62.263089,21.49931 -31.58162,47.06471 4.31338,110.01498 50.588999,88.71966 z"
       style="fill:#000000;fill-opacity:1"
       sodipodi:nodetypes="sssssssssssssssssssss" />
    <path
       sodipodi:nodetypes="sssssssssssssssssssssssssssss"
       style="fill:#ffffff;fill-opacity:1;stroke:none;stroke-opacity:1"
       d="M 79.054912,231.68056 C 37.472358,221.03881 23.151258,167.58307 51.880388,130.24741 66.392502,111.38783 105.30982,95.052508 114.70377,103.87767 c 11.85729,11.13936 15.96583,60.10236 11.80309,69.20387 -1.37979,3.01681 -0.99901,5.11944 1.27799,12.20089 8.63739,26.86234 -19.6865,53.83087 -48.729938,46.39813 z m 25.514628,-7.11893 c 33.12872,-15.24533 24.89791,-58.31005 -11.144591,-58.31005 -19.862707,0 -28.859277,21.12748 -15.175057,35.63699 10.317097,10.93931 29.273578,4.06216 26.286808,-9.5365 -2.07449,-9.44516 -19.608418,-11.43909 -20.669458,-2.35049 -0.7029,6.02085 3.153761,9.40252 7.042497,6.17515 0.507435,-0.42113 1.07059,-0.70213 1.569128,-0.81561 0.498537,-0.11347 0.932457,-0.0594 1.181422,0.18954 0.655803,0.6558 -0.208067,1.76853 -1.648799,2.71731 -1.440732,0.94878 -3.458326,1.73361 -5.109971,1.73361 -3.039428,0 -5.269488,-2.57168 -6.144291,-5.73876 -0.874803,-3.16708 -0.394351,-6.92957 1.987244,-9.31116 4.924664,-4.92466 11.785956,-5.25651 17.185061,-2.64164 5.399107,2.61487 9.336027,8.17645 8.411937,15.03866 -1.22467,9.09436 -8.365156,13.66365 -16.358531,13.69071 -7.993375,0.0271 -16.839642,-4.48811 -21.475887,-13.56263 -6.934292,-13.57249 -0.655257,-25.68898 10.234602,-31.64471 10.88986,-5.95573 19.516636,-2.65 31.739926,0.5634 6.34187,1.66723 11.63645,1.56862 11.09895,-11.16717 -0.5375,-12.7358 -2.36343,-30.47373 -7.3369,-40.88562 -3.96055,-8.29136 -15.3083,-9.20247 -27.774922,-4.89777 -12.466621,4.3047 -26.052118,13.8252 -34.48817,26.39708 -31.581629,47.0647 4.31338,110.01498 50.589002,88.71966 z"
       id="path4515"
       inkscape:connector-curvature="0" />
  </g>
</svg>
